<svg width="24" height="24" viewBox="0 0 24 24" fill="none" xmlns="http://www.w3.org/2000/svg">
<path d="M9.7954 10.9431C9.7954 11.6377 9.4039 12.2007 8.92141 12.2007C8.43861 12.2007 8.04758 11.6377 8.04758 10.9431C8.04758 10.2481 8.43861 9.68482 8.92141 9.68482C9.4039 9.68482 9.7954 10.2481 9.7954 10.9431ZM16.8277 10.9431C16.8277 11.6377 16.4364 12.2007 15.9537 12.2007C15.4712 12.2007 15.0799 11.6377 15.0799 10.9431C15.0799 10.2481 15.4712 9.68482 15.9537 9.68482C16.4364 9.68482 16.8277 10.2481 16.8277 10.9431ZM20.3356 11.5435C20.2837 11.7165 20.1496 12.0961 20.0827 12.2578C19.3767 13.8593 17.8449 14.89 14.6529 15.2065C15.2005 15.5782 15.7605 16.2825 15.7605 17.6123V21.0223C15.7605 21.0223 15.8307 21.8661 16.6043 22.1473C16.6043 22.1473 17.061 22.4638 16.5689 22.6394C16.5689 22.6394 14.4246 22.8152 14.4246 21.0575V18.4561C14.4246 18.4561 14.5093 17.4971 14.0027 17.1026V21.3387C14.0027 21.3387 14.0378 22.3582 14.5651 22.745C14.5651 22.745 14.9165 23.3776 14.1434 23.202C14.1434 23.202 12.6668 22.9911 12.5966 21.2684L12.5628 16.9443H12.2081L12.1744 21.2684C12.104 22.9911 10.6276 23.202 10.6276 23.202C9.85418 23.3776 10.2058 22.745 10.2058 22.745C10.7332 22.3582 10.7681 21.3387 10.7681 21.3387V17.0658C10.2615 17.4243 10.3464 18.4561 10.3464 18.4561V21.0575C10.3464 22.8152 8.20193 22.6394 8.20193 22.6394C7.70965 22.4638 8.16671 22.1473 8.16671 22.1473C8.94028 21.8661 9.0105 21.0223 9.0105 21.0223V18.6365C5.68915 19.3775 5.00092 17.068 5.00092 17.068C4.47348 15.7139 3.70856 15.3535 3.70856 15.3535C2.64486 14.6239 3.78758 14.6414 3.78758 14.6414C4.96571 14.7295 5.58119 15.8548 5.58119 15.8548C6.68069 17.746 8.51325 17.07 9.0921 16.7933C9.26795 15.9721 9.7011 15.4867 10.1261 15.2014C7.13286 14.8787 5.45041 13.8513 4.59699 12.2606C4.5135 12.0954 4.34475 11.7135 4.27796 11.5374C3.97429 10.6862 3.84983 9.70685 3.84983 8.61501C3.84983 7.16893 4.37258 5.98942 5.22881 5.06542C5.09191 4.73048 4.64148 3.38186 5.37008 1.56031C5.37008 1.56031 6.48597 1.20702 9.01414 2.9319C10.0747 2.64098 11.2118 2.49765 12.3371 2.49765C13.3599 2.49765 14.3812 2.616 15.3409 2.85584C17.7904 1.21642 18.8733 1.56031 18.8733 1.56031C19.4873 3.09536 19.2638 4.29469 19.0965 4.83454C20.0538 5.78996 20.6434 7.04553 20.6434 8.61501C20.6434 9.70934 20.5723 10.6907 20.3356 11.5435ZM17.5211 8.54111C16.3869 7.51432 14.477 8.06723 12.3109 8.06723C10.1362 8.06723 8.21914 7.51985 7.0866 8.55367C6.40749 9.174 6.01082 9.92147 6.01082 10.7265C6.01082 14.0889 8.83129 14.6129 12.3109 14.6129C15.7901 14.6129 18.6109 14.5102 18.6109 10.7265C18.6109 9.91614 18.2087 9.16393 17.5211 8.54111Z" fill="currentColor"/>
</svg>
