<svg width="24" height="24" viewBox="0 0 24 24" fill="none" xmlns="http://www.w3.org/2000/svg">
<path d="M12.0481 11.5099L2.23039 21.8803C2.23076 21.8825 2.2315 21.8842 2.23184 21.8865C2.53295 23.0126 3.56651 23.8417 4.79313 23.8417C5.28347 23.8417 5.74384 23.7098 6.13865 23.4782L6.17001 23.4599L17.2216 17.1135L12.0481 11.5099Z" fill="#EB3131"/>
<path d="M21.9813 9.71902L21.9719 9.71262L17.2005 6.96289L11.825 11.7181L17.2192 17.0798L21.9654 14.3575C22.7974 13.9109 23.3623 13.0388 23.3623 12.0332C23.3623 11.0348 22.8051 10.1671 21.9813 9.71902Z" fill="#F6B60B"/>
<path d="M2.22901 2.15186C2.16999 2.36884 2.13897 2.59612 2.13897 2.83214V21.1909C2.13897 21.4265 2.16962 21.6546 2.22938 21.8708L12.386 11.747L2.22901 2.15186Z" fill="#5778C5"/>
<path d="M12.1207 11.9816L17.2027 6.9268L6.16348 0.558758C5.76223 0.319642 5.29391 0.181641 4.79279 0.181641C3.56616 0.181641 2.53121 1.01214 2.23005 2.13932C2.22968 2.14042 2.22968 2.14117 2.22968 2.14214L12.1207 11.9816Z" fill="#3BAD49"/>
</svg>
