<svg width="24" height="24" viewBox="0 0 24 24" fill="none" xmlns="http://www.w3.org/2000/svg">
<path fill-rule="evenodd" clip-rule="evenodd" d="M20.2207 6.30469C21.3425 7.92099 21.9999 9.88362 21.9999 12.0001C21.9999 14.1165 21.3425 16.0793 20.2207 17.6954L17.6304 15.1051C18.1391 14.1847 18.4286 13.1261 18.4286 12.0001C18.4286 10.8741 18.1391 9.81562 17.6304 8.89522L20.2207 6.30469Z" fill="#B8D3F4"/>
<path fill-rule="evenodd" clip-rule="evenodd" d="M17.6954 3.7794L15.1049 6.36973C14.1844 5.86103 13.126 5.57148 12 5.57148C8.44964 5.57148 5.57136 8.44976 5.57136 12.0001C5.57136 15.5505 8.44964 18.4287 12 18.4287C13.126 18.4287 14.1844 18.1392 15.1049 17.6305L17.6954 20.2208C16.0791 21.3426 14.1164 22.0001 12 22.0001C6.4772 22.0001 2 17.5229 2 12.0001C2 6.47731 6.4772 2.00012 12 2.00012C14.1164 2.00012 16.0791 2.6576 17.6954 3.7794Z" fill="#7FADF2"/>
</svg>
