<svg width="24" height="24" viewBox="0 0 24 24" fill="none" xmlns="http://www.w3.org/2000/svg">
<g clip-path="url(#clip0_4042_8331)">
<g filter="url(#filter0_f_4042_8331)">
<path d="M15.6853 17.6121C15.6853 16.3078 15.1385 15.6265 14.611 15.2684L14.4392 15.1522L14.6452 15.1316C16.2352 14.974 17.4056 14.6396 18.2634 14.1492C19.1193 13.6599 19.6677 13.0137 20.0144 12.2274C20.0805 12.0672 20.2124 11.6915 20.2634 11.5213C20.4969 10.6787 20.5681 9.70619 20.5681 8.61505C20.5681 7.06639 19.9875 5.82947 19.0437 4.88751L19.0114 4.85528L19.0251 4.81231C19.1874 4.28871 19.4049 3.12227 18.8161 1.62384C18.8138 1.62339 18.8109 1.62235 18.8083 1.62188C18.7772 1.6163 18.7288 1.61038 18.6628 1.60723C18.5296 1.60092 18.3234 1.60853 18.0407 1.6668C17.4754 1.78342 16.601 2.10227 15.3825 2.91778L15.3552 2.93634L15.323 2.92852C14.3698 2.69031 13.3546 2.57211 12.3376 2.57208C11.2185 2.57208 10.0875 2.7147 9.03389 3.00372L9.00069 3.01348L8.97237 2.99395C7.71432 2.13564 6.8116 1.79747 6.22823 1.67266C5.93692 1.61036 5.72502 1.60138 5.5876 1.60723C5.51892 1.61017 5.46841 1.61618 5.43623 1.62188C5.4328 1.62249 5.4295 1.62325 5.42647 1.62384C4.72728 3.40371 5.16725 4.71571 5.29854 5.03692L5.31612 5.08087L5.28389 5.11602C4.43988 6.02685 3.92451 7.18879 3.92451 8.61505C3.92453 9.701 4.04889 10.6705 4.34834 11.5106L4.49971 11.8729C4.56006 12.0096 4.62262 12.1449 4.66377 12.2264C5.50132 13.7863 7.15578 14.8057 10.1345 15.1268L10.3386 15.1482L10.1677 15.2635C9.75719 15.5392 9.3371 16.0087 9.16573 16.8084L9.15791 16.8445L9.12471 16.8611C8.8308 17.0017 8.21415 17.2454 7.52803 17.2117C6.83628 17.1777 6.07948 16.8611 5.51631 15.8924L5.51436 15.8885C5.51333 15.8867 5.51166 15.8835 5.50948 15.8797C5.50502 15.872 5.49813 15.8603 5.48897 15.8455C5.4706 15.8158 5.44298 15.7725 5.40596 15.7205C5.33186 15.6165 5.22049 15.4771 5.07393 15.3348C4.78099 15.0504 4.34993 14.7592 3.78682 14.7156V14.7166H3.74287C3.7151 14.7175 3.67634 14.7198 3.6335 14.7244C3.54468 14.734 3.44849 14.7536 3.38643 14.7889C3.35619 14.8061 3.34087 14.8234 3.33467 14.8377C3.3296 14.8497 3.32666 14.8698 3.34151 14.9051C3.37448 14.9835 3.48362 15.1076 3.74385 15.2869C3.74568 15.2878 3.74851 15.2892 3.75166 15.2908C3.75825 15.2942 3.76813 15.2997 3.77998 15.3065C3.80363 15.3199 3.83711 15.3404 3.87862 15.369C3.9622 15.4264 4.07856 15.517 4.21065 15.6502C4.44194 15.8835 4.7228 16.2474 4.96846 16.7947L5.071 17.0408L5.07295 17.0467V17.0477C5.07322 17.0485 5.07436 17.0499 5.07491 17.0516C5.07613 17.0554 5.07811 17.0616 5.08076 17.0691C5.08621 17.0847 5.09414 17.1082 5.10616 17.1375C5.13037 17.1965 5.16905 17.2806 5.2253 17.3797C5.33824 17.5785 5.52318 17.8367 5.8083 18.0721C6.37539 18.5401 7.35312 18.9292 8.99385 18.5633L9.08565 18.5428V21.0291L9.08467 21.032C9.08448 21.034 9.08406 21.0366 9.08369 21.0399C9.08291 21.0469 9.0826 21.0575 9.08076 21.0701C9.07709 21.0954 9.07095 21.1311 9.06123 21.1746C9.04169 21.262 9.0068 21.3816 8.94698 21.5106C8.82847 21.7658 8.60782 22.0597 8.20576 22.2107C8.2031 22.2127 8.19915 22.2165 8.19405 22.2205C8.18381 22.2285 8.16963 22.2403 8.15401 22.2547C8.12153 22.2847 8.08666 22.3227 8.06612 22.3621C8.04598 22.4008 8.04421 22.4308 8.05635 22.4559C8.06999 22.4837 8.11066 22.525 8.22041 22.5652C8.22322 22.5654 8.22646 22.566 8.23018 22.5662C8.2451 22.567 8.26729 22.5675 8.29561 22.5682C8.35258 22.5695 8.43467 22.5696 8.53291 22.5643C8.72988 22.5535 8.99098 22.5214 9.25069 22.4363C9.51056 22.3511 9.7654 22.2141 9.95479 21.9969C10.143 21.781 10.2712 21.4802 10.2712 21.0574V18.449C10.2707 18.4409 10.2699 18.4288 10.2692 18.4139C10.2679 18.384 10.2663 18.3411 10.2663 18.2889C10.2663 18.1842 10.271 18.0402 10.2927 17.8846C10.3352 17.5789 10.4448 17.2032 10.7253 17.0047L10.8435 16.9207V21.3445C10.8434 21.3467 10.8427 21.3503 10.8425 21.3543C10.8421 21.3623 10.8415 21.374 10.8405 21.3885C10.8385 21.4181 10.8347 21.4606 10.8288 21.5125C10.817 21.6164 10.7958 21.7595 10.7575 21.9149C10.6833 22.2162 10.5404 22.5812 10.2644 22.7928C10.2628 22.7958 10.2614 22.7995 10.2595 22.8035C10.2521 22.8189 10.2426 22.8413 10.2331 22.867C10.2136 22.92 10.1986 22.9816 10.2019 23.034C10.2049 23.0819 10.2219 23.1162 10.2663 23.1365C10.3193 23.1607 10.4226 23.1715 10.611 23.1287L10.6169 23.1277H10.6179L10.6198 23.1268C10.6221 23.1264 10.6258 23.1257 10.6306 23.1248C10.6404 23.123 10.6554 23.1203 10.6745 23.116C10.7128 23.1074 10.7686 23.0935 10.8356 23.0711C10.97 23.0261 11.1502 22.9489 11.3317 22.8201C11.6923 22.5643 12.0651 22.1013 12.0993 21.2654L12.1335 16.9432V16.869H12.6374V16.9432L12.6716 21.2654L12.6823 21.4178C12.7528 22.1584 13.1021 22.5803 13.4401 22.8201C13.6216 22.9487 13.801 23.0262 13.9353 23.0711C14.0023 23.0935 14.058 23.1074 14.0964 23.116C14.1155 23.1203 14.1305 23.123 14.1403 23.1248C14.1451 23.1257 14.1487 23.1264 14.1511 23.1268L14.154 23.1277L14.1599 23.1287C14.3482 23.1715 14.4516 23.1607 14.5046 23.1365C14.549 23.1162 14.5659 23.082 14.569 23.034C14.5724 22.9816 14.5573 22.92 14.5378 22.867C14.5283 22.8413 14.5188 22.8189 14.5114 22.8035C14.5093 22.799 14.5072 22.7951 14.5056 22.7918C14.2303 22.58 14.0875 22.2158 14.0134 21.9149C13.9751 21.7594 13.9539 21.6164 13.9421 21.5125C13.9362 21.4606 13.9324 21.4181 13.9304 21.3885C13.9294 21.374 13.9288 21.3623 13.9284 21.3543V21.3426L13.9274 21.3416V16.949L14.0485 17.0428C14.3254 17.2584 14.4353 17.6219 14.4782 17.9158C14.4999 18.0647 14.5046 18.201 14.5046 18.2996C14.5046 18.349 14.504 18.3897 14.5026 18.4178C14.502 18.4316 14.5012 18.4424 14.5007 18.45C14.5004 18.4537 14.4999 18.4568 14.4997 18.4588V21.0574C14.4997 21.4802 14.628 21.781 14.8161 21.9969C15.0055 22.2142 15.2603 22.3511 15.5202 22.4363C15.7799 22.5215 16.041 22.5535 16.238 22.5643C16.3363 22.5696 16.4183 22.5695 16.4753 22.5682C16.5036 22.5675 16.5258 22.567 16.5407 22.5662C16.544 22.566 16.547 22.5654 16.5495 22.5652C16.6599 22.5249 16.7008 22.4838 16.7146 22.4559C16.7267 22.4308 16.7249 22.4008 16.7048 22.3621C16.6843 22.3227 16.6494 22.2847 16.6169 22.2547C16.6012 22.2402 16.5871 22.2285 16.5769 22.2205C16.5729 22.2174 16.5696 22.2146 16.5671 22.2127C16.1637 22.0619 15.9427 21.7663 15.8239 21.5106C15.7641 21.3817 15.7302 21.262 15.7106 21.1746C15.7009 21.1311 15.6948 21.0954 15.6911 21.0701C15.6893 21.0575 15.688 21.0469 15.6872 21.0399C15.6868 21.0366 15.6864 21.034 15.6862 21.032V21.0281L15.6853 21.0223V17.6121ZM18.5358 10.7264C18.5358 9.9427 18.1476 9.20913 17.4714 8.59649C16.9264 8.10311 16.1899 7.98417 15.3044 7.99395C14.8622 7.99886 14.3869 8.03524 13.8845 8.0711C13.3832 8.10688 12.8555 8.14238 12.3112 8.14239C11.7647 8.14239 11.2344 8.10724 10.7312 8.07208C10.227 8.03685 9.75076 8.00164 9.30733 7.99786C8.41899 7.99029 7.6817 8.11234 7.13741 8.60919C6.46951 9.21932 6.08565 9.94778 6.08565 10.7264C6.08566 11.5563 6.26001 12.205 6.57002 12.7127C6.87992 13.2201 7.32889 13.5925 7.88838 13.8631C9.01154 14.4062 10.5715 14.5379 12.3112 14.5379C14.0554 14.5379 15.6132 14.5104 16.736 14.0193C17.294 13.7752 17.742 13.4172 18.0515 12.8914C18.3614 12.3646 18.5358 11.6631 18.5358 10.7264ZM9.72041 10.9432C9.72041 10.6091 9.62665 10.3092 9.47823 10.0955C9.32963 9.88168 9.13131 9.7596 8.92159 9.75958C8.71169 9.75958 8.51347 9.88171 8.36494 10.0955C8.2166 10.3092 8.12276 10.609 8.12276 10.9432C8.12281 11.277 8.21664 11.5764 8.36494 11.7899C8.51346 12.0035 8.71168 12.1258 8.92159 12.1258C9.13132 12.1258 9.32964 12.0036 9.47823 11.7899C9.62661 11.5764 9.72036 11.277 9.72041 10.9432ZM16.7526 10.9432C16.7526 10.6091 16.6589 10.3092 16.5105 10.0955C16.3619 9.88171 16.1636 9.75958 15.9538 9.75958C15.7441 9.75959 15.5457 9.88165 15.3972 10.0955C15.2488 10.3092 15.155 10.6091 15.155 10.9432C15.155 11.277 15.2488 11.5764 15.3972 11.7899C15.5457 12.0036 15.7441 12.1258 15.9538 12.1258C16.1636 12.1258 16.3619 12.0035 16.5105 11.7899C16.6588 11.5764 16.7526 11.277 16.7526 10.9432ZM9.8708 10.9432C9.87075 11.3037 9.76908 11.6333 9.60127 11.8748C9.43353 12.1161 9.19424 12.2752 8.92159 12.2752C8.64875 12.2752 8.40958 12.1162 8.2419 11.8748C8.07413 11.6333 7.97242 11.3037 7.97237 10.9432C7.97237 10.5824 8.07409 10.2523 8.2419 10.0106C8.40958 9.76908 8.64873 9.60919 8.92159 9.60919C9.19426 9.60921 9.43354 9.76911 9.60127 10.0106C9.76912 10.2523 9.8708 10.5824 9.8708 10.9432ZM16.903 10.9432C16.903 11.3037 16.8013 11.6333 16.6335 11.8748C16.4658 12.1162 16.2266 12.2752 15.9538 12.2752C15.6811 12.2752 15.4418 12.1162 15.2741 11.8748C15.1064 11.6333 15.0046 11.3036 15.0046 10.9432C15.0046 10.5824 15.1063 10.2523 15.2741 10.0106C15.4418 9.7691 15.6811 9.6092 15.9538 9.60919C16.2266 9.60919 16.4658 9.76909 16.6335 10.0106C16.8014 10.2523 16.903 10.5824 16.903 10.9432ZM18.6862 10.7264C18.6862 11.6811 18.5079 12.4111 18.1804 12.9676C17.8522 13.5251 17.3776 13.9025 16.7956 14.157C15.6383 14.6631 14.0461 14.6873 12.3112 14.6873C10.5715 14.6873 8.98089 14.5572 7.82393 13.9979C7.24345 13.7172 6.76973 13.3273 6.44209 12.7908C6.11468 12.2547 5.93624 11.5774 5.93623 10.7264C5.93623 9.89498 6.34562 9.12836 7.03584 8.49786C7.62397 7.961 8.4115 7.83985 9.3083 7.84747C9.75749 7.8513 10.2396 7.88757 10.7419 7.92266C11.2451 7.95782 11.7705 7.992 12.3112 7.992C12.8496 7.99199 13.3726 7.95746 13.8737 7.92169C14.3741 7.88597 14.8546 7.84853 15.3024 7.84356C16.1966 7.83366 16.9829 7.95189 17.572 8.48516C18.2707 9.11809 18.6862 9.88948 18.6862 10.7264ZM20.7185 8.61505C20.7185 9.71158 20.6473 10.7008 20.4079 11.5633V11.5652C20.3553 11.7406 20.22 12.1216 20.1521 12.2859L20.1511 12.2879C19.7917 13.103 19.2219 13.7736 18.3376 14.2791C17.4894 14.764 16.3545 15.0925 14.8454 15.2586C15.3589 15.6673 15.8356 16.3782 15.8356 17.6121V21.0232C15.8363 21.0287 15.838 21.0369 15.8396 21.0477C15.8427 21.0696 15.8483 21.1027 15.8571 21.1424C15.8749 21.2219 15.9064 21.3312 15.9606 21.4481C16.0557 21.6527 16.2195 21.8795 16.5017 22.0213L16.6296 22.077L16.6394 22.0799L16.6472 22.0857H16.6481L16.6491 22.0867C16.6502 22.0875 16.6521 22.0892 16.654 22.0906C16.6578 22.0934 16.6634 22.0975 16.6696 22.1024C16.6824 22.1123 16.6994 22.1268 16.7185 22.1443C16.7562 22.1792 16.8055 22.2311 16.8376 22.2928C16.8701 22.3551 16.8899 22.4377 16.8493 22.5213C16.8103 22.6014 16.7247 22.6633 16.5944 22.7098L16.5847 22.7127L16.5749 22.7137H16.573C16.5718 22.7138 16.5702 22.7145 16.5681 22.7147C16.5638 22.715 16.5575 22.7152 16.5495 22.7156C16.5331 22.7165 16.5084 22.7179 16.4782 22.7186C16.418 22.72 16.3326 22.7193 16.2302 22.7137C16.0251 22.7025 15.7497 22.6695 15.4733 22.5789C15.1972 22.4884 14.9155 22.3396 14.7028 22.0955C14.489 21.8501 14.3493 21.5134 14.3493 21.0574V18.449L14.4245 18.4559L14.3503 18.449V18.4402C14.3508 18.4336 14.3516 18.4229 14.3522 18.41C14.3535 18.3841 14.3552 18.3461 14.3552 18.2996C14.3552 18.2062 14.3501 18.078 14.3298 17.9383C14.2966 17.7105 14.2234 17.464 14.0778 17.283V21.3465C14.0782 21.3536 14.0788 21.3641 14.0798 21.3777C14.0817 21.4053 14.0859 21.4455 14.0915 21.4949C14.1028 21.5943 14.1225 21.731 14.1589 21.8787C14.2235 22.1409 14.3355 22.4255 14.5241 22.6111L14.6091 22.6844L14.6228 22.6941L14.6306 22.7088H14.6315L14.6325 22.7107C14.6333 22.7122 14.6341 22.715 14.6355 22.7176C14.6381 22.7228 14.6419 22.73 14.6462 22.7391C14.6551 22.7576 14.667 22.7843 14.6784 22.8152C14.7005 22.8752 14.7248 22.9602 14.7194 23.0438C14.7138 23.1318 14.6738 23.2233 14.5671 23.2723C14.4695 23.3169 14.3278 23.3199 14.1325 23.2762H14.1315L14.1296 23.2752H14.1267V23.2742C14.1236 23.2737 14.1192 23.2742 14.114 23.2732C14.1022 23.2711 14.0845 23.2673 14.0632 23.2625C14.0205 23.2529 13.9597 23.2369 13.8874 23.2127C13.7428 23.1643 13.5493 23.0812 13.3532 22.9422C12.958 22.6618 12.5583 22.1578 12.5222 21.2713L12.5212 21.2684L12.489 17.0193H12.2819L12.2497 21.2684V21.2713C12.2135 22.1578 11.8129 22.6618 11.4177 22.9422C11.2216 23.0812 11.0281 23.1643 10.8835 23.2127C10.8111 23.2369 10.7504 23.2529 10.7077 23.2625C10.6865 23.2673 10.6697 23.2711 10.6579 23.2732C10.6522 23.2743 10.6475 23.2747 10.6442 23.2752C10.6427 23.2754 10.6412 23.276 10.6403 23.2762H10.6384C10.4433 23.3198 10.3024 23.3168 10.2048 23.2723C10.0977 23.2234 10.0572 23.1319 10.0515 23.0438C10.0461 22.9603 10.0704 22.8752 10.0925 22.8152C10.1039 22.7843 10.1158 22.7576 10.1247 22.7391C10.129 22.73 10.1328 22.7228 10.1355 22.7176C10.1368 22.715 10.1376 22.7122 10.1384 22.7107L10.1394 22.7088H10.1403L10.1481 22.6941L10.1618 22.6844C10.4031 22.5074 10.5383 22.1783 10.612 21.8787C10.6484 21.731 10.6691 21.5943 10.6804 21.4949C10.686 21.4456 10.6892 21.4053 10.6911 21.3777C10.6921 21.3641 10.6927 21.3536 10.6931 21.3465V17.24C10.5491 17.4131 10.4756 17.6647 10.4421 17.9051C10.4217 18.052 10.4157 18.1889 10.4157 18.2889C10.4157 18.3385 10.4174 18.3791 10.4187 18.407C10.4193 18.4209 10.4201 18.4321 10.4206 18.4393C10.4208 18.4426 10.4205 18.4453 10.4206 18.4471L10.4216 18.449V21.0574C10.4216 21.5134 10.282 21.8501 10.0681 22.0955C9.85539 22.3395 9.57373 22.4884 9.29756 22.5789C9.02128 22.6695 8.74575 22.7025 8.54073 22.7137C8.43832 22.7193 8.35285 22.72 8.29268 22.7186C8.26273 22.7179 8.23878 22.7165 8.22237 22.7156C8.21415 22.7152 8.20723 22.715 8.20284 22.7147C8.20073 22.7145 8.19911 22.7138 8.19795 22.7137H8.196L8.18623 22.7127L8.17647 22.7098C8.04625 22.6633 7.9606 22.6014 7.92159 22.5213C7.88102 22.4377 7.90084 22.3551 7.9333 22.2928C7.96548 22.2311 8.01463 22.1792 8.05244 22.1443C8.07179 22.1265 8.08944 22.1123 8.10225 22.1024C8.10868 22.0973 8.11408 22.0934 8.11787 22.0906C8.11971 22.0893 8.12068 22.0875 8.12178 22.0867L8.12373 22.0857L8.13252 22.0799L8.14131 22.077C8.50384 21.9452 8.70258 21.682 8.81123 21.4481C8.86553 21.3311 8.89695 21.2219 8.91475 21.1424C8.92363 21.1027 8.92914 21.0696 8.93233 21.0477C8.93388 21.0369 8.93465 21.0287 8.93526 21.0232V18.7274C7.30922 19.068 6.30888 18.6804 5.7126 18.1883C5.41049 17.9389 5.2153 17.665 5.09541 17.4539C5.03548 17.3484 4.99383 17.2584 4.96748 17.1941C4.9543 17.162 4.94542 17.1359 4.93916 17.118C4.93607 17.1091 4.93292 17.1023 4.93135 17.0975V17.0955L4.83076 16.8563C4.59254 16.3256 4.32286 15.9763 4.1042 15.7557C3.97912 15.6295 3.86998 15.5454 3.79366 15.493C3.75557 15.4668 3.72595 15.4478 3.70576 15.4363C3.696 15.4308 3.68819 15.4272 3.6833 15.4246C3.68087 15.4234 3.67848 15.4222 3.67744 15.4217L3.67647 15.4207L3.66573 15.4158L3.6667 15.4149C3.40028 15.2321 3.25455 15.0864 3.20284 14.9637C3.17547 14.8986 3.17214 14.8344 3.19698 14.7772C3.22083 14.7223 3.26613 14.6842 3.31221 14.658C3.40279 14.6066 3.52583 14.5849 3.61787 14.575C3.66522 14.5699 3.7075 14.5682 3.73799 14.5672C3.7533 14.5667 3.76641 14.5663 3.7751 14.5662H3.79366C4.40617 14.6122 4.86996 14.9279 5.17842 15.2274C5.33286 15.3773 5.44992 15.5239 5.52803 15.6336C5.56697 15.6883 5.59603 15.7343 5.61592 15.7664C5.62587 15.7825 5.63423 15.7957 5.63936 15.8045C5.6418 15.8087 5.64389 15.8119 5.64522 15.8143C5.6458 15.8153 5.64583 15.8165 5.64619 15.8172L5.74873 15.9822C6.27089 16.7745 6.932 17.0327 7.53584 17.0623C8.16257 17.093 8.73272 16.8766 9.02803 16.7391C9.1914 16.0179 9.55045 15.5512 9.9294 15.2518C7.03957 14.9051 5.38209 13.8821 4.53096 12.2957L4.52998 12.2947C4.44533 12.1272 4.27546 11.742 4.20772 11.5633V11.5623C3.90023 10.7004 3.77512 9.712 3.7751 8.61505C3.7751 7.16702 4.29261 5.98066 5.14229 5.04864C4.98498 4.64024 4.59098 3.30585 5.30049 1.53204L5.31416 1.49981L5.34737 1.48907V1.48809H5.34932L5.36494 1.48419C5.37531 1.48163 5.39056 1.47785 5.40987 1.47442C5.44858 1.46755 5.50543 1.46007 5.58076 1.45684C5.73151 1.45039 5.95625 1.46133 6.25948 1.52618C6.86144 1.65496 7.77199 1.99835 9.02705 2.8504C10.0852 2.56356 11.2176 2.42266 12.3376 2.42266C13.3545 2.42269 14.3703 2.53917 15.3269 2.7752C16.5435 1.9649 17.4264 1.63979 18.0105 1.51934C18.3047 1.45867 18.5233 1.44991 18.6696 1.45684C18.7427 1.46031 18.7981 1.46764 18.8356 1.47442C18.8543 1.4778 18.8686 1.48169 18.8786 1.48419L18.8942 1.48809H18.8962V1.48907L18.9294 1.49981L18.9431 1.53204C19.5494 3.04782 19.3484 4.24282 19.1794 4.81329C20.132 5.77828 20.7185 7.04171 20.7185 8.61505Z" fill="currentColor"/>
</g>
<g filter="url(#filter1_f_4042_8331)">
<path d="M15.6853 17.6121C15.6853 16.3078 15.1385 15.6265 14.611 15.2684L14.4392 15.1522L14.6452 15.1316C16.2352 14.974 17.4056 14.6396 18.2634 14.1492C19.1193 13.6599 19.6677 13.0137 20.0144 12.2274C20.0805 12.0672 20.2124 11.6915 20.2634 11.5213C20.4969 10.6787 20.5681 9.70619 20.5681 8.61505C20.5681 7.06639 19.9875 5.82947 19.0437 4.88751L19.0114 4.85528L19.0251 4.81231C19.1874 4.28871 19.4049 3.12227 18.8161 1.62384C18.8138 1.62339 18.8109 1.62235 18.8083 1.62188C18.7772 1.6163 18.7288 1.61038 18.6628 1.60723C18.5296 1.60092 18.3234 1.60853 18.0407 1.6668C17.4754 1.78342 16.601 2.10227 15.3825 2.91778L15.3552 2.93634L15.323 2.92852C14.3698 2.69031 13.3546 2.57211 12.3376 2.57208C11.2185 2.57208 10.0875 2.7147 9.03389 3.00372L9.00069 3.01348L8.97237 2.99395C7.71432 2.13564 6.8116 1.79747 6.22823 1.67266C5.93692 1.61036 5.72502 1.60138 5.5876 1.60723C5.51892 1.61017 5.46841 1.61618 5.43623 1.62188C5.4328 1.62249 5.4295 1.62325 5.42647 1.62384C4.72728 3.40371 5.16725 4.71571 5.29854 5.03692L5.31612 5.08087L5.28389 5.11602C4.43988 6.02685 3.92451 7.18879 3.92451 8.61505C3.92453 9.701 4.04889 10.6705 4.34834 11.5106L4.49971 11.8729C4.56006 12.0096 4.62262 12.1449 4.66377 12.2264C5.50132 13.7863 7.15578 14.8057 10.1345 15.1268L10.3386 15.1482L10.1677 15.2635C9.75719 15.5392 9.3371 16.0087 9.16573 16.8084L9.15791 16.8445L9.12471 16.8611C8.8308 17.0017 8.21415 17.2454 7.52803 17.2117C6.83628 17.1777 6.07948 16.8611 5.51631 15.8924L5.51436 15.8885C5.51333 15.8867 5.51166 15.8835 5.50948 15.8797C5.50502 15.872 5.49813 15.8603 5.48897 15.8455C5.4706 15.8158 5.44298 15.7725 5.40596 15.7205C5.33186 15.6165 5.22049 15.4771 5.07393 15.3348C4.78099 15.0504 4.34993 14.7592 3.78682 14.7156V14.7166H3.74287C3.7151 14.7175 3.67634 14.7198 3.6335 14.7244C3.54468 14.734 3.44849 14.7536 3.38643 14.7889C3.35619 14.8061 3.34087 14.8234 3.33467 14.8377C3.3296 14.8497 3.32666 14.8698 3.34151 14.9051C3.37448 14.9835 3.48362 15.1076 3.74385 15.2869C3.74568 15.2878 3.74851 15.2892 3.75166 15.2908C3.75825 15.2942 3.76813 15.2997 3.77998 15.3065C3.80363 15.3199 3.83711 15.3404 3.87862 15.369C3.9622 15.4264 4.07856 15.517 4.21065 15.6502C4.44194 15.8835 4.7228 16.2474 4.96846 16.7947L5.071 17.0408L5.07295 17.0467V17.0477C5.07322 17.0485 5.07436 17.0499 5.07491 17.0516C5.07613 17.0554 5.07811 17.0616 5.08076 17.0691C5.08621 17.0847 5.09414 17.1082 5.10616 17.1375C5.13037 17.1965 5.16905 17.2806 5.2253 17.3797C5.33824 17.5785 5.52318 17.8367 5.8083 18.0721C6.37539 18.5401 7.35312 18.9292 8.99385 18.5633L9.08565 18.5428V21.0291L9.08467 21.032C9.08448 21.034 9.08406 21.0366 9.08369 21.0399C9.08291 21.0469 9.0826 21.0575 9.08076 21.0701C9.07709 21.0954 9.07095 21.1311 9.06123 21.1746C9.04169 21.262 9.0068 21.3816 8.94698 21.5106C8.82847 21.7658 8.60782 22.0597 8.20576 22.2107C8.2031 22.2127 8.19915 22.2165 8.19405 22.2205C8.18381 22.2285 8.16963 22.2403 8.15401 22.2547C8.12153 22.2847 8.08666 22.3227 8.06612 22.3621C8.04598 22.4008 8.04421 22.4308 8.05635 22.4559C8.06999 22.4837 8.11066 22.525 8.22041 22.5652C8.22322 22.5654 8.22646 22.566 8.23018 22.5662C8.2451 22.567 8.26729 22.5675 8.29561 22.5682C8.35258 22.5695 8.43467 22.5696 8.53291 22.5643C8.72988 22.5535 8.99098 22.5214 9.25069 22.4363C9.51056 22.3511 9.7654 22.2141 9.95479 21.9969C10.143 21.781 10.2712 21.4802 10.2712 21.0574V18.449C10.2707 18.4409 10.2699 18.4288 10.2692 18.4139C10.2679 18.384 10.2663 18.3411 10.2663 18.2889C10.2663 18.1842 10.271 18.0402 10.2927 17.8846C10.3352 17.5789 10.4448 17.2032 10.7253 17.0047L10.8435 16.9207V21.3445C10.8434 21.3467 10.8427 21.3503 10.8425 21.3543C10.8421 21.3623 10.8415 21.374 10.8405 21.3885C10.8385 21.4181 10.8347 21.4606 10.8288 21.5125C10.817 21.6164 10.7958 21.7595 10.7575 21.9149C10.6833 22.2162 10.5404 22.5812 10.2644 22.7928C10.2628 22.7958 10.2614 22.7995 10.2595 22.8035C10.2521 22.8189 10.2426 22.8413 10.2331 22.867C10.2136 22.92 10.1986 22.9816 10.2019 23.034C10.2049 23.0819 10.2219 23.1162 10.2663 23.1365C10.3193 23.1607 10.4226 23.1715 10.611 23.1287L10.6169 23.1277H10.6179L10.6198 23.1268C10.6221 23.1264 10.6258 23.1257 10.6306 23.1248C10.6404 23.123 10.6554 23.1203 10.6745 23.116C10.7128 23.1074 10.7686 23.0935 10.8356 23.0711C10.97 23.0261 11.1502 22.9489 11.3317 22.8201C11.6923 22.5643 12.0651 22.1013 12.0993 21.2654L12.1335 16.9432V16.869H12.6374V16.9432L12.6716 21.2654L12.6823 21.4178C12.7528 22.1584 13.1021 22.5803 13.4401 22.8201C13.6216 22.9487 13.801 23.0262 13.9353 23.0711C14.0023 23.0935 14.058 23.1074 14.0964 23.116C14.1155 23.1203 14.1305 23.123 14.1403 23.1248C14.1451 23.1257 14.1487 23.1264 14.1511 23.1268L14.154 23.1277L14.1599 23.1287C14.3482 23.1715 14.4516 23.1607 14.5046 23.1365C14.549 23.1162 14.5659 23.082 14.569 23.034C14.5724 22.9816 14.5573 22.92 14.5378 22.867C14.5283 22.8413 14.5188 22.8189 14.5114 22.8035C14.5093 22.799 14.5072 22.7951 14.5056 22.7918C14.2303 22.58 14.0875 22.2158 14.0134 21.9149C13.9751 21.7594 13.9539 21.6164 13.9421 21.5125C13.9362 21.4606 13.9324 21.4181 13.9304 21.3885C13.9294 21.374 13.9288 21.3623 13.9284 21.3543V21.3426L13.9274 21.3416V16.949L14.0485 17.0428C14.3254 17.2584 14.4353 17.6219 14.4782 17.9158C14.4999 18.0647 14.5046 18.201 14.5046 18.2996C14.5046 18.349 14.504 18.3897 14.5026 18.4178C14.502 18.4316 14.5012 18.4424 14.5007 18.45C14.5004 18.4537 14.4999 18.4568 14.4997 18.4588V21.0574C14.4997 21.4802 14.628 21.781 14.8161 21.9969C15.0055 22.2142 15.2603 22.3511 15.5202 22.4363C15.7799 22.5215 16.041 22.5535 16.238 22.5643C16.3363 22.5696 16.4183 22.5695 16.4753 22.5682C16.5036 22.5675 16.5258 22.567 16.5407 22.5662C16.544 22.566 16.547 22.5654 16.5495 22.5652C16.6599 22.5249 16.7008 22.4838 16.7146 22.4559C16.7267 22.4308 16.7249 22.4008 16.7048 22.3621C16.6843 22.3227 16.6494 22.2847 16.6169 22.2547C16.6012 22.2402 16.5871 22.2285 16.5769 22.2205C16.5729 22.2174 16.5696 22.2146 16.5671 22.2127C16.1637 22.0619 15.9427 21.7663 15.8239 21.5106C15.7641 21.3817 15.7302 21.262 15.7106 21.1746C15.7009 21.1311 15.6948 21.0954 15.6911 21.0701C15.6893 21.0575 15.688 21.0469 15.6872 21.0399C15.6868 21.0366 15.6864 21.034 15.6862 21.032V21.0281L15.6853 21.0223V17.6121ZM18.5358 10.7264C18.5358 9.9427 18.1476 9.20913 17.4714 8.59649C16.9264 8.10311 16.1899 7.98417 15.3044 7.99395C14.8622 7.99886 14.3869 8.03524 13.8845 8.0711C13.3832 8.10688 12.8555 8.14238 12.3112 8.14239C11.7647 8.14239 11.2344 8.10724 10.7312 8.07208C10.227 8.03685 9.75076 8.00164 9.30733 7.99786C8.41899 7.99029 7.6817 8.11234 7.13741 8.60919C6.46951 9.21932 6.08565 9.94778 6.08565 10.7264C6.08566 11.5563 6.26001 12.205 6.57002 12.7127C6.87992 13.2201 7.32889 13.5925 7.88838 13.8631C9.01154 14.4062 10.5715 14.5379 12.3112 14.5379C14.0554 14.5379 15.6132 14.5104 16.736 14.0193C17.294 13.7752 17.742 13.4172 18.0515 12.8914C18.3614 12.3646 18.5358 11.6631 18.5358 10.7264ZM9.72041 10.9432C9.72041 10.6091 9.62665 10.3092 9.47823 10.0955C9.32963 9.88168 9.13131 9.7596 8.92159 9.75958C8.71169 9.75958 8.51347 9.88171 8.36494 10.0955C8.2166 10.3092 8.12276 10.609 8.12276 10.9432C8.12281 11.277 8.21664 11.5764 8.36494 11.7899C8.51346 12.0035 8.71168 12.1258 8.92159 12.1258C9.13132 12.1258 9.32964 12.0036 9.47823 11.7899C9.62661 11.5764 9.72036 11.277 9.72041 10.9432ZM16.7526 10.9432C16.7526 10.6091 16.6589 10.3092 16.5105 10.0955C16.3619 9.88171 16.1636 9.75958 15.9538 9.75958C15.7441 9.75959 15.5457 9.88165 15.3972 10.0955C15.2488 10.3092 15.155 10.6091 15.155 10.9432C15.155 11.277 15.2488 11.5764 15.3972 11.7899C15.5457 12.0036 15.7441 12.1258 15.9538 12.1258C16.1636 12.1258 16.3619 12.0035 16.5105 11.7899C16.6588 11.5764 16.7526 11.277 16.7526 10.9432ZM9.8708 10.9432C9.87075 11.3037 9.76908 11.6333 9.60127 11.8748C9.43353 12.1161 9.19424 12.2752 8.92159 12.2752C8.64875 12.2752 8.40958 12.1162 8.2419 11.8748C8.07413 11.6333 7.97242 11.3037 7.97237 10.9432C7.97237 10.5824 8.07409 10.2523 8.2419 10.0106C8.40958 9.76908 8.64873 9.60919 8.92159 9.60919C9.19426 9.60921 9.43354 9.76911 9.60127 10.0106C9.76912 10.2523 9.8708 10.5824 9.8708 10.9432ZM16.903 10.9432C16.903 11.3037 16.8013 11.6333 16.6335 11.8748C16.4658 12.1162 16.2266 12.2752 15.9538 12.2752C15.6811 12.2752 15.4418 12.1162 15.2741 11.8748C15.1064 11.6333 15.0046 11.3036 15.0046 10.9432C15.0046 10.5824 15.1063 10.2523 15.2741 10.0106C15.4418 9.7691 15.6811 9.6092 15.9538 9.60919C16.2266 9.60919 16.4658 9.76909 16.6335 10.0106C16.8014 10.2523 16.903 10.5824 16.903 10.9432ZM18.6862 10.7264C18.6862 11.6811 18.5079 12.4111 18.1804 12.9676C17.8522 13.5251 17.3776 13.9025 16.7956 14.157C15.6383 14.6631 14.0461 14.6873 12.3112 14.6873C10.5715 14.6873 8.98089 14.5572 7.82393 13.9979C7.24345 13.7172 6.76973 13.3273 6.44209 12.7908C6.11468 12.2547 5.93624 11.5774 5.93623 10.7264C5.93623 9.89498 6.34562 9.12836 7.03584 8.49786C7.62397 7.961 8.4115 7.83985 9.3083 7.84747C9.75749 7.8513 10.2396 7.88757 10.7419 7.92266C11.2451 7.95782 11.7705 7.992 12.3112 7.992C12.8496 7.99199 13.3726 7.95746 13.8737 7.92169C14.3741 7.88597 14.8546 7.84853 15.3024 7.84356C16.1966 7.83366 16.9829 7.95189 17.572 8.48516C18.2707 9.11809 18.6862 9.88948 18.6862 10.7264ZM20.7185 8.61505C20.7185 9.71158 20.6473 10.7008 20.4079 11.5633V11.5652C20.3553 11.7406 20.22 12.1216 20.1521 12.2859L20.1511 12.2879C19.7917 13.103 19.2219 13.7736 18.3376 14.2791C17.4894 14.764 16.3545 15.0925 14.8454 15.2586C15.3589 15.6673 15.8356 16.3782 15.8356 17.6121V21.0232C15.8363 21.0287 15.838 21.0369 15.8396 21.0477C15.8427 21.0696 15.8483 21.1027 15.8571 21.1424C15.8749 21.2219 15.9064 21.3312 15.9606 21.4481C16.0557 21.6527 16.2195 21.8795 16.5017 22.0213L16.6296 22.077L16.6394 22.0799L16.6472 22.0857H16.6481L16.6491 22.0867C16.6502 22.0875 16.6521 22.0892 16.654 22.0906C16.6578 22.0934 16.6634 22.0975 16.6696 22.1024C16.6824 22.1123 16.6994 22.1268 16.7185 22.1443C16.7562 22.1792 16.8055 22.2311 16.8376 22.2928C16.8701 22.3551 16.8899 22.4377 16.8493 22.5213C16.8103 22.6014 16.7247 22.6633 16.5944 22.7098L16.5847 22.7127L16.5749 22.7137H16.573C16.5718 22.7138 16.5702 22.7145 16.5681 22.7147C16.5638 22.715 16.5575 22.7152 16.5495 22.7156C16.5331 22.7165 16.5084 22.7179 16.4782 22.7186C16.418 22.72 16.3326 22.7193 16.2302 22.7137C16.0251 22.7025 15.7497 22.6695 15.4733 22.5789C15.1972 22.4884 14.9155 22.3396 14.7028 22.0955C14.489 21.8501 14.3493 21.5134 14.3493 21.0574V18.449L14.4245 18.4559L14.3503 18.449V18.4402C14.3508 18.4336 14.3516 18.4229 14.3522 18.41C14.3535 18.3841 14.3552 18.3461 14.3552 18.2996C14.3552 18.2062 14.3501 18.078 14.3298 17.9383C14.2966 17.7105 14.2234 17.464 14.0778 17.283V21.3465C14.0782 21.3536 14.0788 21.3641 14.0798 21.3777C14.0817 21.4053 14.0859 21.4455 14.0915 21.4949C14.1028 21.5943 14.1225 21.731 14.1589 21.8787C14.2235 22.1409 14.3355 22.4255 14.5241 22.6111L14.6091 22.6844L14.6228 22.6941L14.6306 22.7088H14.6315L14.6325 22.7107C14.6333 22.7122 14.6341 22.715 14.6355 22.7176C14.6381 22.7228 14.6419 22.73 14.6462 22.7391C14.6551 22.7576 14.667 22.7843 14.6784 22.8152C14.7005 22.8752 14.7248 22.9602 14.7194 23.0438C14.7138 23.1318 14.6738 23.2233 14.5671 23.2723C14.4695 23.3169 14.3278 23.3199 14.1325 23.2762H14.1315L14.1296 23.2752H14.1267V23.2742C14.1236 23.2737 14.1192 23.2742 14.114 23.2732C14.1022 23.2711 14.0845 23.2673 14.0632 23.2625C14.0205 23.2529 13.9597 23.2369 13.8874 23.2127C13.7428 23.1643 13.5493 23.0812 13.3532 22.9422C12.958 22.6618 12.5583 22.1578 12.5222 21.2713L12.5212 21.2684L12.489 17.0193H12.2819L12.2497 21.2684V21.2713C12.2135 22.1578 11.8129 22.6618 11.4177 22.9422C11.2216 23.0812 11.0281 23.1643 10.8835 23.2127C10.8111 23.2369 10.7504 23.2529 10.7077 23.2625C10.6865 23.2673 10.6697 23.2711 10.6579 23.2732C10.6522 23.2743 10.6475 23.2747 10.6442 23.2752C10.6427 23.2754 10.6412 23.276 10.6403 23.2762H10.6384C10.4433 23.3198 10.3024 23.3168 10.2048 23.2723C10.0977 23.2234 10.0572 23.1319 10.0515 23.0438C10.0461 22.9603 10.0704 22.8752 10.0925 22.8152C10.1039 22.7843 10.1158 22.7576 10.1247 22.7391C10.129 22.73 10.1328 22.7228 10.1355 22.7176C10.1368 22.715 10.1376 22.7122 10.1384 22.7107L10.1394 22.7088H10.1403L10.1481 22.6941L10.1618 22.6844C10.4031 22.5074 10.5383 22.1783 10.612 21.8787C10.6484 21.731 10.6691 21.5943 10.6804 21.4949C10.686 21.4456 10.6892 21.4053 10.6911 21.3777C10.6921 21.3641 10.6927 21.3536 10.6931 21.3465V17.24C10.5491 17.4131 10.4756 17.6647 10.4421 17.9051C10.4217 18.052 10.4157 18.1889 10.4157 18.2889C10.4157 18.3385 10.4174 18.3791 10.4187 18.407C10.4193 18.4209 10.4201 18.4321 10.4206 18.4393C10.4208 18.4426 10.4205 18.4453 10.4206 18.4471L10.4216 18.449V21.0574C10.4216 21.5134 10.282 21.8501 10.0681 22.0955C9.85539 22.3395 9.57373 22.4884 9.29756 22.5789C9.02128 22.6695 8.74575 22.7025 8.54073 22.7137C8.43832 22.7193 8.35285 22.72 8.29268 22.7186C8.26273 22.7179 8.23878 22.7165 8.22237 22.7156C8.21415 22.7152 8.20723 22.715 8.20284 22.7147C8.20073 22.7145 8.19911 22.7138 8.19795 22.7137H8.196L8.18623 22.7127L8.17647 22.7098C8.04625 22.6633 7.9606 22.6014 7.92159 22.5213C7.88102 22.4377 7.90084 22.3551 7.9333 22.2928C7.96548 22.2311 8.01463 22.1792 8.05244 22.1443C8.07179 22.1265 8.08944 22.1123 8.10225 22.1024C8.10868 22.0973 8.11408 22.0934 8.11787 22.0906C8.11971 22.0893 8.12068 22.0875 8.12178 22.0867L8.12373 22.0857L8.13252 22.0799L8.14131 22.077C8.50384 21.9452 8.70258 21.682 8.81123 21.4481C8.86553 21.3311 8.89695 21.2219 8.91475 21.1424C8.92363 21.1027 8.92914 21.0696 8.93233 21.0477C8.93388 21.0369 8.93465 21.0287 8.93526 21.0232V18.7274C7.30922 19.068 6.30888 18.6804 5.7126 18.1883C5.41049 17.9389 5.2153 17.665 5.09541 17.4539C5.03548 17.3484 4.99383 17.2584 4.96748 17.1941C4.9543 17.162 4.94542 17.1359 4.93916 17.118C4.93607 17.1091 4.93292 17.1023 4.93135 17.0975V17.0955L4.83076 16.8563C4.59254 16.3256 4.32286 15.9763 4.1042 15.7557C3.97912 15.6295 3.86998 15.5454 3.79366 15.493C3.75557 15.4668 3.72595 15.4478 3.70576 15.4363C3.696 15.4308 3.68819 15.4272 3.6833 15.4246C3.68087 15.4234 3.67848 15.4222 3.67744 15.4217L3.67647 15.4207L3.66573 15.4158L3.6667 15.4149C3.40028 15.2321 3.25455 15.0864 3.20284 14.9637C3.17547 14.8986 3.17214 14.8344 3.19698 14.7772C3.22083 14.7223 3.26613 14.6842 3.31221 14.658C3.40279 14.6066 3.52583 14.5849 3.61787 14.575C3.66522 14.5699 3.7075 14.5682 3.73799 14.5672C3.7533 14.5667 3.76641 14.5663 3.7751 14.5662H3.79366C4.40617 14.6122 4.86996 14.9279 5.17842 15.2274C5.33286 15.3773 5.44992 15.5239 5.52803 15.6336C5.56697 15.6883 5.59603 15.7343 5.61592 15.7664C5.62587 15.7825 5.63423 15.7957 5.63936 15.8045C5.6418 15.8087 5.64389 15.8119 5.64522 15.8143C5.6458 15.8153 5.64583 15.8165 5.64619 15.8172L5.74873 15.9822C6.27089 16.7745 6.932 17.0327 7.53584 17.0623C8.16257 17.093 8.73272 16.8766 9.02803 16.7391C9.1914 16.0179 9.55045 15.5512 9.9294 15.2518C7.03957 14.9051 5.38209 13.8821 4.53096 12.2957L4.52998 12.2947C4.44533 12.1272 4.27546 11.742 4.20772 11.5633V11.5623C3.90023 10.7004 3.77512 9.712 3.7751 8.61505C3.7751 7.16702 4.29261 5.98066 5.14229 5.04864C4.98498 4.64024 4.59098 3.30585 5.30049 1.53204L5.31416 1.49981L5.34737 1.48907V1.48809H5.34932L5.36494 1.48419C5.37531 1.48163 5.39056 1.47785 5.40987 1.47442C5.44858 1.46755 5.50543 1.46007 5.58076 1.45684C5.73151 1.45039 5.95625 1.46133 6.25948 1.52618C6.86144 1.65496 7.77199 1.99835 9.02705 2.8504C10.0852 2.56356 11.2176 2.42266 12.3376 2.42266C13.3545 2.42269 14.3703 2.53917 15.3269 2.7752C16.5435 1.9649 17.4264 1.63979 18.0105 1.51934C18.3047 1.45867 18.5233 1.44991 18.6696 1.45684C18.7427 1.46031 18.7981 1.46764 18.8356 1.47442C18.8543 1.4778 18.8686 1.48169 18.8786 1.48419L18.8942 1.48809H18.8962V1.48907L18.9294 1.49981L18.9431 1.53204C19.5494 3.04782 19.3484 4.24282 19.1794 4.81329C20.132 5.77828 20.7185 7.04171 20.7185 8.61505Z" fill="currentColor"/>
</g>
<path d="M15.6853 17.6121C15.6853 16.3078 15.1385 15.6265 14.611 15.2684L14.4392 15.1522L14.6452 15.1316C16.2352 14.974 17.4056 14.6396 18.2634 14.1492C19.1193 13.6599 19.6677 13.0137 20.0144 12.2274C20.0805 12.0672 20.2124 11.6915 20.2634 11.5213C20.4969 10.6787 20.5681 9.70619 20.5681 8.61505C20.5681 7.06639 19.9875 5.82947 19.0437 4.88751L19.0114 4.85528L19.0251 4.81231C19.1874 4.28871 19.4049 3.12227 18.8161 1.62384C18.8138 1.62339 18.8109 1.62235 18.8083 1.62188C18.7772 1.6163 18.7288 1.61038 18.6628 1.60723C18.5296 1.60092 18.3234 1.60853 18.0407 1.6668C17.4754 1.78342 16.601 2.10227 15.3825 2.91778L15.3552 2.93634L15.323 2.92852C14.3698 2.69031 13.3546 2.57211 12.3376 2.57208C11.2185 2.57208 10.0875 2.7147 9.03389 3.00372L9.00069 3.01348L8.97237 2.99395C7.71432 2.13564 6.8116 1.79747 6.22823 1.67266C5.93692 1.61036 5.72502 1.60138 5.5876 1.60723C5.51892 1.61017 5.46841 1.61618 5.43623 1.62188C5.4328 1.62249 5.4295 1.62325 5.42647 1.62384C4.72728 3.40371 5.16725 4.71571 5.29854 5.03692L5.31612 5.08087L5.28389 5.11602C4.43988 6.02685 3.92451 7.18879 3.92451 8.61505C3.92453 9.701 4.04889 10.6705 4.34834 11.5106L4.49971 11.8729C4.56006 12.0096 4.62262 12.1449 4.66377 12.2264C5.50132 13.7863 7.15578 14.8057 10.1345 15.1268L10.3386 15.1482L10.1677 15.2635C9.75719 15.5392 9.3371 16.0087 9.16573 16.8084L9.15791 16.8445L9.12471 16.8611C8.8308 17.0017 8.21415 17.2454 7.52803 17.2117C6.83628 17.1777 6.07948 16.8611 5.51631 15.8924L5.51436 15.8885C5.51333 15.8867 5.51166 15.8835 5.50948 15.8797C5.50502 15.872 5.49813 15.8603 5.48897 15.8455C5.4706 15.8158 5.44298 15.7725 5.40596 15.7205C5.33186 15.6165 5.22049 15.4771 5.07393 15.3348C4.78099 15.0504 4.34993 14.7592 3.78682 14.7156V14.7166H3.74287C3.7151 14.7175 3.67634 14.7198 3.6335 14.7244C3.54468 14.734 3.44849 14.7536 3.38643 14.7889C3.35619 14.8061 3.34087 14.8234 3.33467 14.8377C3.3296 14.8497 3.32666 14.8698 3.34151 14.9051C3.37448 14.9835 3.48362 15.1076 3.74385 15.2869C3.74568 15.2878 3.74851 15.2892 3.75166 15.2908C3.75825 15.2942 3.76813 15.2997 3.77998 15.3065C3.80363 15.3199 3.83711 15.3404 3.87862 15.369C3.9622 15.4264 4.07856 15.517 4.21065 15.6502C4.44194 15.8835 4.7228 16.2474 4.96846 16.7947L5.071 17.0408L5.07295 17.0467V17.0477C5.07322 17.0485 5.07436 17.0499 5.07491 17.0516C5.07613 17.0554 5.07811 17.0616 5.08076 17.0691C5.08621 17.0847 5.09414 17.1082 5.10616 17.1375C5.13037 17.1965 5.16905 17.2806 5.2253 17.3797C5.33824 17.5785 5.52318 17.8367 5.8083 18.0721C6.37539 18.5401 7.35312 18.9292 8.99385 18.5633L9.08565 18.5428V21.0291L9.08467 21.032C9.08448 21.034 9.08406 21.0366 9.08369 21.0399C9.08291 21.0469 9.0826 21.0575 9.08076 21.0701C9.07709 21.0954 9.07095 21.1311 9.06123 21.1746C9.04169 21.262 9.0068 21.3816 8.94698 21.5106C8.82847 21.7658 8.60782 22.0597 8.20576 22.2107C8.2031 22.2127 8.19915 22.2165 8.19405 22.2205C8.18381 22.2285 8.16963 22.2403 8.15401 22.2547C8.12153 22.2847 8.08666 22.3227 8.06612 22.3621C8.04598 22.4008 8.04421 22.4308 8.05635 22.4559C8.06999 22.4837 8.11066 22.525 8.22041 22.5652C8.22322 22.5654 8.22646 22.566 8.23018 22.5662C8.2451 22.567 8.26729 22.5675 8.29561 22.5682C8.35258 22.5695 8.43467 22.5696 8.53291 22.5643C8.72988 22.5535 8.99098 22.5214 9.25069 22.4363C9.51056 22.3511 9.7654 22.2141 9.95479 21.9969C10.143 21.781 10.2712 21.4802 10.2712 21.0574V18.449C10.2707 18.4409 10.2699 18.4288 10.2692 18.4139C10.2679 18.384 10.2663 18.3411 10.2663 18.2889C10.2663 18.1842 10.271 18.0402 10.2927 17.8846C10.3352 17.5789 10.4448 17.2032 10.7253 17.0047L10.8435 16.9207V21.3445C10.8434 21.3467 10.8427 21.3503 10.8425 21.3543C10.8421 21.3623 10.8415 21.374 10.8405 21.3885C10.8385 21.4181 10.8347 21.4606 10.8288 21.5125C10.817 21.6164 10.7958 21.7595 10.7575 21.9149C10.6833 22.2162 10.5404 22.5812 10.2644 22.7928C10.2628 22.7958 10.2614 22.7995 10.2595 22.8035C10.2521 22.8189 10.2426 22.8413 10.2331 22.867C10.2136 22.92 10.1986 22.9816 10.2019 23.034C10.2049 23.0819 10.2219 23.1162 10.2663 23.1365C10.3193 23.1607 10.4226 23.1715 10.611 23.1287L10.6169 23.1277H10.6179L10.6198 23.1268C10.6221 23.1264 10.6258 23.1257 10.6306 23.1248C10.6404 23.123 10.6554 23.1203 10.6745 23.116C10.7128 23.1074 10.7686 23.0935 10.8356 23.0711C10.97 23.0261 11.1502 22.9489 11.3317 22.8201C11.6923 22.5643 12.0651 22.1013 12.0993 21.2654L12.1335 16.9432V16.869H12.6374V16.9432L12.6716 21.2654L12.6823 21.4178C12.7528 22.1584 13.1021 22.5803 13.4401 22.8201C13.6216 22.9487 13.801 23.0262 13.9353 23.0711C14.0023 23.0935 14.058 23.1074 14.0964 23.116C14.1155 23.1203 14.1305 23.123 14.1403 23.1248C14.1451 23.1257 14.1487 23.1264 14.1511 23.1268L14.154 23.1277L14.1599 23.1287C14.3482 23.1715 14.4516 23.1607 14.5046 23.1365C14.549 23.1162 14.5659 23.082 14.569 23.034C14.5724 22.9816 14.5573 22.92 14.5378 22.867C14.5283 22.8413 14.5188 22.8189 14.5114 22.8035C14.5093 22.799 14.5072 22.7951 14.5056 22.7918C14.2303 22.58 14.0875 22.2158 14.0134 21.9149C13.9751 21.7594 13.9539 21.6164 13.9421 21.5125C13.9362 21.4606 13.9324 21.4181 13.9304 21.3885C13.9294 21.374 13.9288 21.3623 13.9284 21.3543V21.3426L13.9274 21.3416V16.949L14.0485 17.0428C14.3254 17.2584 14.4353 17.6219 14.4782 17.9158C14.4999 18.0647 14.5046 18.201 14.5046 18.2996C14.5046 18.349 14.504 18.3897 14.5026 18.4178C14.502 18.4316 14.5012 18.4424 14.5007 18.45C14.5004 18.4537 14.4999 18.4568 14.4997 18.4588V21.0574C14.4997 21.4802 14.628 21.781 14.8161 21.9969C15.0055 22.2142 15.2603 22.3511 15.5202 22.4363C15.7799 22.5215 16.041 22.5535 16.238 22.5643C16.3363 22.5696 16.4183 22.5695 16.4753 22.5682C16.5036 22.5675 16.5258 22.567 16.5407 22.5662C16.544 22.566 16.547 22.5654 16.5495 22.5652C16.6599 22.5249 16.7008 22.4838 16.7146 22.4559C16.7267 22.4308 16.7249 22.4008 16.7048 22.3621C16.6843 22.3227 16.6494 22.2847 16.6169 22.2547C16.6012 22.2402 16.5871 22.2285 16.5769 22.2205C16.5729 22.2174 16.5696 22.2146 16.5671 22.2127C16.1637 22.0619 15.9427 21.7663 15.8239 21.5106C15.7641 21.3817 15.7302 21.262 15.7106 21.1746C15.7009 21.1311 15.6948 21.0954 15.6911 21.0701C15.6893 21.0575 15.688 21.0469 15.6872 21.0399C15.6868 21.0366 15.6864 21.034 15.6862 21.032V21.0281L15.6853 21.0223V17.6121ZM18.5358 10.7264C18.5358 9.9427 18.1476 9.20913 17.4714 8.59649C16.9264 8.10311 16.1899 7.98417 15.3044 7.99395C14.8622 7.99886 14.3869 8.03524 13.8845 8.0711C13.3832 8.10688 12.8555 8.14238 12.3112 8.14239C11.7647 8.14239 11.2344 8.10724 10.7312 8.07208C10.227 8.03685 9.75076 8.00164 9.30733 7.99786C8.41899 7.99029 7.6817 8.11234 7.13741 8.60919C6.46951 9.21932 6.08565 9.94778 6.08565 10.7264C6.08566 11.5563 6.26001 12.205 6.57002 12.7127C6.87992 13.2201 7.32889 13.5925 7.88838 13.8631C9.01154 14.4062 10.5715 14.5379 12.3112 14.5379C14.0554 14.5379 15.6132 14.5104 16.736 14.0193C17.294 13.7752 17.742 13.4172 18.0515 12.8914C18.3614 12.3646 18.5358 11.6631 18.5358 10.7264ZM9.72041 10.9432C9.72041 10.6091 9.62665 10.3092 9.47823 10.0955C9.32963 9.88168 9.13131 9.7596 8.92159 9.75958C8.71169 9.75958 8.51347 9.88171 8.36494 10.0955C8.2166 10.3092 8.12276 10.609 8.12276 10.9432C8.12281 11.277 8.21664 11.5764 8.36494 11.7899C8.51346 12.0035 8.71168 12.1258 8.92159 12.1258C9.13132 12.1258 9.32964 12.0036 9.47823 11.7899C9.62661 11.5764 9.72036 11.277 9.72041 10.9432ZM16.7526 10.9432C16.7526 10.6091 16.6589 10.3092 16.5105 10.0955C16.3619 9.88171 16.1636 9.75958 15.9538 9.75958C15.7441 9.75959 15.5457 9.88165 15.3972 10.0955C15.2488 10.3092 15.155 10.6091 15.155 10.9432C15.155 11.277 15.2488 11.5764 15.3972 11.7899C15.5457 12.0036 15.7441 12.1258 15.9538 12.1258C16.1636 12.1258 16.3619 12.0035 16.5105 11.7899C16.6588 11.5764 16.7526 11.277 16.7526 10.9432ZM9.8708 10.9432C9.87075 11.3037 9.76908 11.6333 9.60127 11.8748C9.43353 12.1161 9.19424 12.2752 8.92159 12.2752C8.64875 12.2752 8.40958 12.1162 8.2419 11.8748C8.07413 11.6333 7.97242 11.3037 7.97237 10.9432C7.97237 10.5824 8.07409 10.2523 8.2419 10.0106C8.40958 9.76908 8.64873 9.60919 8.92159 9.60919C9.19426 9.60921 9.43354 9.76911 9.60127 10.0106C9.76912 10.2523 9.8708 10.5824 9.8708 10.9432ZM16.903 10.9432C16.903 11.3037 16.8013 11.6333 16.6335 11.8748C16.4658 12.1162 16.2266 12.2752 15.9538 12.2752C15.6811 12.2752 15.4418 12.1162 15.2741 11.8748C15.1064 11.6333 15.0046 11.3036 15.0046 10.9432C15.0046 10.5824 15.1063 10.2523 15.2741 10.0106C15.4418 9.7691 15.6811 9.6092 15.9538 9.60919C16.2266 9.60919 16.4658 9.76909 16.6335 10.0106C16.8014 10.2523 16.903 10.5824 16.903 10.9432ZM18.6862 10.7264C18.6862 11.6811 18.5079 12.4111 18.1804 12.9676C17.8522 13.5251 17.3776 13.9025 16.7956 14.157C15.6383 14.6631 14.0461 14.6873 12.3112 14.6873C10.5715 14.6873 8.98089 14.5572 7.82393 13.9979C7.24345 13.7172 6.76973 13.3273 6.44209 12.7908C6.11468 12.2547 5.93624 11.5774 5.93623 10.7264C5.93623 9.89498 6.34562 9.12836 7.03584 8.49786C7.62397 7.961 8.4115 7.83985 9.3083 7.84747C9.75749 7.8513 10.2396 7.88757 10.7419 7.92266C11.2451 7.95782 11.7705 7.992 12.3112 7.992C12.8496 7.99199 13.3726 7.95746 13.8737 7.92169C14.3741 7.88597 14.8546 7.84853 15.3024 7.84356C16.1966 7.83366 16.9829 7.95189 17.572 8.48516C18.2707 9.11809 18.6862 9.88948 18.6862 10.7264ZM20.7185 8.61505C20.7185 9.71158 20.6473 10.7008 20.4079 11.5633V11.5652C20.3553 11.7406 20.22 12.1216 20.1521 12.2859L20.1511 12.2879C19.7917 13.103 19.2219 13.7736 18.3376 14.2791C17.4894 14.764 16.3545 15.0925 14.8454 15.2586C15.3589 15.6673 15.8356 16.3782 15.8356 17.6121V21.0232C15.8363 21.0287 15.838 21.0369 15.8396 21.0477C15.8427 21.0696 15.8483 21.1027 15.8571 21.1424C15.8749 21.2219 15.9064 21.3312 15.9606 21.4481C16.0557 21.6527 16.2195 21.8795 16.5017 22.0213L16.6296 22.077L16.6394 22.0799L16.6472 22.0857H16.6481L16.6491 22.0867C16.6502 22.0875 16.6521 22.0892 16.654 22.0906C16.6578 22.0934 16.6634 22.0975 16.6696 22.1024C16.6824 22.1123 16.6994 22.1268 16.7185 22.1443C16.7562 22.1792 16.8055 22.2311 16.8376 22.2928C16.8701 22.3551 16.8899 22.4377 16.8493 22.5213C16.8103 22.6014 16.7247 22.6633 16.5944 22.7098L16.5847 22.7127L16.5749 22.7137H16.573C16.5718 22.7138 16.5702 22.7145 16.5681 22.7147C16.5638 22.715 16.5575 22.7152 16.5495 22.7156C16.5331 22.7165 16.5084 22.7179 16.4782 22.7186C16.418 22.72 16.3326 22.7193 16.2302 22.7137C16.0251 22.7025 15.7497 22.6695 15.4733 22.5789C15.1972 22.4884 14.9155 22.3396 14.7028 22.0955C14.489 21.8501 14.3493 21.5134 14.3493 21.0574V18.449L14.4245 18.4559L14.3503 18.449V18.4402C14.3508 18.4336 14.3516 18.4229 14.3522 18.41C14.3535 18.3841 14.3552 18.3461 14.3552 18.2996C14.3552 18.2062 14.3501 18.078 14.3298 17.9383C14.2966 17.7105 14.2234 17.464 14.0778 17.283V21.3465C14.0782 21.3536 14.0788 21.3641 14.0798 21.3777C14.0817 21.4053 14.0859 21.4455 14.0915 21.4949C14.1028 21.5943 14.1225 21.731 14.1589 21.8787C14.2235 22.1409 14.3355 22.4255 14.5241 22.6111L14.6091 22.6844L14.6228 22.6941L14.6306 22.7088H14.6315L14.6325 22.7107C14.6333 22.7122 14.6341 22.715 14.6355 22.7176C14.6381 22.7228 14.6419 22.73 14.6462 22.7391C14.6551 22.7576 14.667 22.7843 14.6784 22.8152C14.7005 22.8752 14.7248 22.9602 14.7194 23.0438C14.7138 23.1318 14.6738 23.2233 14.5671 23.2723C14.4695 23.3169 14.3278 23.3199 14.1325 23.2762H14.1315L14.1296 23.2752H14.1267V23.2742C14.1236 23.2737 14.1192 23.2742 14.114 23.2732C14.1022 23.2711 14.0845 23.2673 14.0632 23.2625C14.0205 23.2529 13.9597 23.2369 13.8874 23.2127C13.7428 23.1643 13.5493 23.0812 13.3532 22.9422C12.958 22.6618 12.5583 22.1578 12.5222 21.2713L12.5212 21.2684L12.489 17.0193H12.2819L12.2497 21.2684V21.2713C12.2135 22.1578 11.8129 22.6618 11.4177 22.9422C11.2216 23.0812 11.0281 23.1643 10.8835 23.2127C10.8111 23.2369 10.7504 23.2529 10.7077 23.2625C10.6865 23.2673 10.6697 23.2711 10.6579 23.2732C10.6522 23.2743 10.6475 23.2747 10.6442 23.2752C10.6427 23.2754 10.6412 23.276 10.6403 23.2762H10.6384C10.4433 23.3198 10.3024 23.3168 10.2048 23.2723C10.0977 23.2234 10.0572 23.1319 10.0515 23.0438C10.0461 22.9603 10.0704 22.8752 10.0925 22.8152C10.1039 22.7843 10.1158 22.7576 10.1247 22.7391C10.129 22.73 10.1328 22.7228 10.1355 22.7176C10.1368 22.715 10.1376 22.7122 10.1384 22.7107L10.1394 22.7088H10.1403L10.1481 22.6941L10.1618 22.6844C10.4031 22.5074 10.5383 22.1783 10.612 21.8787C10.6484 21.731 10.6691 21.5943 10.6804 21.4949C10.686 21.4456 10.6892 21.4053 10.6911 21.3777C10.6921 21.3641 10.6927 21.3536 10.6931 21.3465V17.24C10.5491 17.4131 10.4756 17.6647 10.4421 17.9051C10.4217 18.052 10.4157 18.1889 10.4157 18.2889C10.4157 18.3385 10.4174 18.3791 10.4187 18.407C10.4193 18.4209 10.4201 18.4321 10.4206 18.4393C10.4208 18.4426 10.4205 18.4453 10.4206 18.4471L10.4216 18.449V21.0574C10.4216 21.5134 10.282 21.8501 10.0681 22.0955C9.85539 22.3395 9.57373 22.4884 9.29756 22.5789C9.02128 22.6695 8.74575 22.7025 8.54073 22.7137C8.43832 22.7193 8.35285 22.72 8.29268 22.7186C8.26273 22.7179 8.23878 22.7165 8.22237 22.7156C8.21415 22.7152 8.20723 22.715 8.20284 22.7147C8.20073 22.7145 8.19911 22.7138 8.19795 22.7137H8.196L8.18623 22.7127L8.17647 22.7098C8.04625 22.6633 7.9606 22.6014 7.92159 22.5213C7.88102 22.4377 7.90084 22.3551 7.9333 22.2928C7.96548 22.2311 8.01463 22.1792 8.05244 22.1443C8.07179 22.1265 8.08944 22.1123 8.10225 22.1024C8.10868 22.0973 8.11408 22.0934 8.11787 22.0906C8.11971 22.0893 8.12068 22.0875 8.12178 22.0867L8.12373 22.0857L8.13252 22.0799L8.14131 22.077C8.50384 21.9452 8.70258 21.682 8.81123 21.4481C8.86553 21.3311 8.89695 21.2219 8.91475 21.1424C8.92363 21.1027 8.92914 21.0696 8.93233 21.0477C8.93388 21.0369 8.93465 21.0287 8.93526 21.0232V18.7274C7.30922 19.068 6.30888 18.6804 5.7126 18.1883C5.41049 17.9389 5.2153 17.665 5.09541 17.4539C5.03548 17.3484 4.99383 17.2584 4.96748 17.1941C4.9543 17.162 4.94542 17.1359 4.93916 17.118C4.93607 17.1091 4.93292 17.1023 4.93135 17.0975V17.0955L4.83076 16.8563C4.59254 16.3256 4.32286 15.9763 4.1042 15.7557C3.97912 15.6295 3.86998 15.5454 3.79366 15.493C3.75557 15.4668 3.72595 15.4478 3.70576 15.4363C3.696 15.4308 3.68819 15.4272 3.6833 15.4246C3.68087 15.4234 3.67848 15.4222 3.67744 15.4217L3.67647 15.4207L3.66573 15.4158L3.6667 15.4149C3.40028 15.2321 3.25455 15.0864 3.20284 14.9637C3.17547 14.8986 3.17214 14.8344 3.19698 14.7772C3.22083 14.7223 3.26613 14.6842 3.31221 14.658C3.40279 14.6066 3.52583 14.5849 3.61787 14.575C3.66522 14.5699 3.7075 14.5682 3.73799 14.5672C3.7533 14.5667 3.76641 14.5663 3.7751 14.5662H3.79366C4.40617 14.6122 4.86996 14.9279 5.17842 15.2274C5.33286 15.3773 5.44992 15.5239 5.52803 15.6336C5.56697 15.6883 5.59603 15.7343 5.61592 15.7664C5.62587 15.7825 5.63423 15.7957 5.63936 15.8045C5.6418 15.8087 5.64389 15.8119 5.64522 15.8143C5.6458 15.8153 5.64583 15.8165 5.64619 15.8172L5.74873 15.9822C6.27089 16.7745 6.932 17.0327 7.53584 17.0623C8.16257 17.093 8.73272 16.8766 9.02803 16.7391C9.1914 16.0179 9.55045 15.5512 9.9294 15.2518C7.03957 14.9051 5.38209 13.8821 4.53096 12.2957L4.52998 12.2947C4.44533 12.1272 4.27546 11.742 4.20772 11.5633V11.5623C3.90023 10.7004 3.77512 9.712 3.7751 8.61505C3.7751 7.16702 4.29261 5.98066 5.14229 5.04864C4.98498 4.64024 4.59098 3.30585 5.30049 1.53204L5.31416 1.49981L5.34737 1.48907V1.48809H5.34932L5.36494 1.48419C5.37531 1.48163 5.39056 1.47785 5.40987 1.47442C5.44858 1.46755 5.50543 1.46007 5.58076 1.45684C5.73151 1.45039 5.95625 1.46133 6.25948 1.52618C6.86144 1.65496 7.77199 1.99835 9.02705 2.8504C10.0852 2.56356 11.2176 2.42266 12.3376 2.42266C13.3545 2.42269 14.3703 2.53917 15.3269 2.7752C16.5435 1.9649 17.4264 1.63979 18.0105 1.51934C18.3047 1.45867 18.5233 1.44991 18.6696 1.45684C18.7427 1.46031 18.7981 1.46764 18.8356 1.47442C18.8543 1.4778 18.8686 1.48169 18.8786 1.48419L18.8942 1.48809H18.8962V1.48907L18.9294 1.49981L18.9431 1.53204C19.5494 3.04782 19.3484 4.24282 19.1794 4.81329C20.132 5.77828 20.7185 7.04171 20.7185 8.61505Z" fill="currentColor"/>
</g>
<defs>
<filter id="filter0_f_4042_8331" x="1.18018" y="-0.545166" width="21.5383" height="25.8525" filterUnits="userSpaceOnUse" color-interpolation-filters="sRGB">
<feFlood flood-opacity="0" result="BackgroundImageFix"/>
<feBlend mode="normal" in="SourceGraphic" in2="BackgroundImageFix" result="shape"/>
<feGaussianBlur stdDeviation="1" result="effect1_foregroundBlur_4042_8331"/>
</filter>
<filter id="filter1_f_4042_8331" x="2.18018" y="0.454834" width="19.5383" height="23.8525" filterUnits="userSpaceOnUse" color-interpolation-filters="sRGB">
<feFlood flood-opacity="0" result="BackgroundImageFix"/>
<feBlend mode="normal" in="SourceGraphic" in2="BackgroundImageFix" result="shape"/>
<feGaussianBlur stdDeviation="0.5" result="effect1_foregroundBlur_4042_8331"/>
</filter>
<clipPath id="clip0_4042_8331">
<rect width="24" height="24" fill="white"/>
</clipPath>
</defs>
</svg>
