<svg width="24" height="24" viewBox="0 0 24 24" fill="none" xmlns="http://www.w3.org/2000/svg">
<path d="M10.5996 1.125H13.4004C15.0824 1.125 16.3369 1.12483 17.3311 1.20605C18.3236 1.28718 19.0459 1.44918 19.667 1.76562C20.7724 2.32888 21.6711 3.22756 22.2344 4.33301C22.5508 4.95409 22.7128 5.6764 22.7939 6.66895C22.8752 7.66311 22.875 8.91759 22.875 10.5996V13.4004C22.875 15.0824 22.8752 16.3369 22.7939 17.3311C22.7128 18.3236 22.5508 19.0459 22.2344 19.667C21.6711 20.7724 20.7724 21.6711 19.667 22.2344C19.0459 22.5508 18.3236 22.7128 17.3311 22.7939C16.3369 22.8752 15.0824 22.875 13.4004 22.875H10.5996C8.91759 22.875 7.66311 22.8752 6.66895 22.7939C5.6764 22.7128 4.95409 22.5508 4.33301 22.2344C3.22756 21.6711 2.32888 20.7724 1.76562 19.667C1.44918 19.0459 1.28718 18.3236 1.20605 17.3311C1.12483 16.3369 1.125 15.0824 1.125 13.4004V10.5996L1.12598 9.41602C1.12981 8.30697 1.14513 7.41464 1.20605 6.66895C1.28718 5.6764 1.44918 4.95409 1.76562 4.33301C2.32888 3.22756 3.22756 2.32888 4.33301 1.76562C4.95409 1.44918 5.6764 1.28718 6.66895 1.20605C7.41464 1.14513 8.30697 1.12981 9.41602 1.12598L10.5996 1.125Z" fill="url(#paint0_linear_4037_7978)" stroke="url(#paint1_linear_4037_7978)" stroke-width="0.25"/>
<path d="M15.9385 11.0682C15.8693 10.927 15.9286 10.7576 16.0698 10.6884C16.2109 10.6192 16.3804 10.6785 16.4496 10.8197C16.5187 10.9609 16.4594 11.1303 16.3183 11.1995C16.1771 11.2687 16.0076 11.2094 15.9385 11.0682ZM17.3122 13.892C17.2431 13.7508 17.3023 13.5814 17.4436 13.5122C17.5847 13.443 17.7542 13.5023 17.8234 13.6435C17.8925 13.7847 17.8332 13.9541 17.692 14.0233C17.5509 14.0925 17.3814 14.0332 17.3122 13.892ZM17.4322 10.2281C16.5286 9.58288 15.3497 9.41628 14.2583 9.83844L17.2416 15.9732C18.2469 15.3759 18.8428 14.3438 18.8936 13.2355L20.0259 13.316C20.0908 13.3202 20.1474 13.2722 20.1516 13.2058C20.1559 13.1409 20.1079 13.0844 20.0415 13.0802L18.8949 12.9983C18.8837 12.5154 18.768 12.0227 18.5378 11.5483C18.3076 11.0753 17.9914 10.6799 17.6186 10.3721L18.2625 9.4191C18.2992 9.36545 18.285 9.29203 18.2314 9.25532C18.1777 9.2186 18.1043 9.23272 18.0676 9.28639L17.4322 10.2267" fill="#3DDC84"/>
<path d="M14.6819 12.5376C13.8404 12.9442 12.9353 13.1503 11.9922 13.1503C9.86726 13.1503 7.93718 12.0716 6.81189 10.3548C6.72294 10.2192 6.5394 10.1867 6.40809 10.2827L5.32515 11.0805C5.20232 11.1708 5.17408 11.3431 5.2602 11.4702C6.73847 13.677 9.24178 15.0592 11.9922 15.0592C13.2248 15.0592 14.4094 14.7895 15.5121 14.2573L14.6819 12.5376Z" fill="#4285F4"/>
<path d="M11.9823 5.75078H12.5683V4.45605C12.5683 4.13273 12.3056 3.87012 11.9823 3.87012C11.659 3.87012 11.3964 4.13273 11.3964 4.45605V5.75078H11.9823Z" fill="#4285F4"/>
<path d="M10.4574 8.27832L6.42924 16.569C6.34172 16.7484 6.29513 16.9432 6.29089 17.1423L6.26689 18.228C6.26123 18.509 6.58598 18.6671 6.8034 18.4892L7.64207 17.8002C7.79597 17.6746 7.92023 17.5164 8.00777 17.3371L11.978 9.16358L10.4588 8.27973L10.4574 8.27832Z" fill="#4285F4"/>
<path d="M17.6751 17.1408C17.6708 16.9417 17.6228 16.7469 17.5367 16.5676L13.5085 8.27686L11.9893 9.16354L15.9596 17.3342C16.0471 17.5136 16.1714 17.6703 16.3253 17.7974L17.164 18.4864C17.3814 18.6643 17.7076 18.5061 17.7005 18.2252L17.6765 17.1394L17.6751 17.1408Z" fill="#4285F4"/>
<path d="M11.9822 5.64795C11.0123 5.64795 10.2244 6.43721 10.2244 7.40578C10.2244 8.37435 11.0137 9.16361 11.9822 9.16361C12.9508 9.16361 13.7401 8.37435 13.7401 7.40578C13.7401 6.43721 12.9508 5.64795 11.9822 5.64795ZM11.9822 8.37294C11.45 8.37294 11.0151 7.93948 11.0151 7.40578C11.0151 6.87208 11.4485 6.43862 11.9822 6.43862C12.5159 6.43862 12.9494 6.87208 12.9494 7.40578C12.9494 7.93948 12.5159 8.37294 11.9822 8.37294Z" fill="#073042"/>
<defs>
<linearGradient id="paint0_linear_4037_7978" x1="12" y1="1" x2="12" y2="23" gradientUnits="userSpaceOnUse">
<stop stop-color="#F5F5F5"/>
<stop offset="1" stop-color="#EBEBEB"/>
</linearGradient>
<linearGradient id="paint1_linear_4037_7978" x1="12" y1="1" x2="12" y2="23" gradientUnits="userSpaceOnUse">
<stop stop-color="white"/>
<stop offset="1" stop-color="#D6D6D6"/>
</linearGradient>
</defs>
</svg>
