<svg width="24" height="24" viewBox="0 0 24 24" fill="none" xmlns="http://www.w3.org/2000/svg">
<path d="M12.4854 20.874L12 21.1436L11.5146 20.874L12 20L12.4854 20.874ZM20 7.7998C20 7.53899 19.9733 7.27881 19.9199 7.02344C19.5603 5.29976 18.0244 4 16.1826 4C15.3907 4.00003 14.6583 4.23935 14.0498 4.64844C13.5631 4.97717 13.1587 5.4124 12.8682 5.9209L12 7.44043L11.1318 5.9209C10.8413 5.4124 10.4369 4.97717 9.9502 4.64844L9.70898 4.49902C9.13504 4.17214 8.48323 3.99897 7.81836 4C5.97653 4 4.43973 5.29878 4.08008 7.02246C4.02674 7.27784 4.00003 7.53899 4 7.7998L4.00684 7.97266L4.00879 8.00195L4.00781 8.03125C4.00742 8.06263 4.00631 8.09349 4.00586 8.10645C4.00536 8.12088 4.00587 8.12543 4.00586 8.12598C4.00344 11.1341 5.98912 13.8522 8.18457 15.9111C9.26193 16.9215 10.3442 17.7293 11.1582 18.2852C11.4914 18.5127 11.7789 18.6956 12 18.833C12.2211 18.6956 12.5086 18.5127 12.8418 18.2852C13.6558 17.7293 14.7381 16.9215 15.8154 15.9111C18.0109 13.8522 19.9966 11.134 19.9941 8.12598V8.10742C19.9937 8.09496 19.9926 8.06286 19.9922 8.03125L19.9912 8.00195L19.9932 7.97266C19.9979 7.87098 20 7.84248 20 7.7998ZM21.9912 8.02344C21.9913 8.02706 21.992 8.03151 21.9922 8.03711C21.9928 8.05488 21.9941 8.08752 21.9941 8.12402C21.9973 11.9906 19.4866 15.2104 17.1836 17.3701C16.0117 18.4691 14.8431 19.3411 13.9697 19.9375C13.5323 20.2362 13.166 20.4671 12.9072 20.625C12.7778 20.7039 12.6753 20.765 12.6035 20.8066C12.5676 20.8275 12.5393 20.8442 12.5195 20.8555C12.5097 20.861 12.5017 20.865 12.4961 20.8682C12.4933 20.8697 12.491 20.8711 12.4893 20.8721L12.4873 20.873L12.4854 20.874C12.485 20.8742 12.4829 20.8692 12 20C11.5171 20.8692 11.515 20.8742 11.5146 20.874L11.5127 20.873L11.5107 20.8721C11.509 20.8711 11.5067 20.8697 11.5039 20.8682C11.4983 20.865 11.4903 20.861 11.4805 20.8555C11.4607 20.8442 11.4324 20.8275 11.3965 20.8066C11.3247 20.765 11.2222 20.7039 11.0928 20.625C10.834 20.4671 10.4677 20.2362 10.0303 19.9375C9.15693 19.3411 7.98834 18.4691 6.81641 17.3701C4.51337 15.2103 2.0027 11.9907 2.00586 8.12402C2.00589 8.08757 2.00719 8.05488 2.00781 8.03711C2.00801 8.03152 2.00866 8.02706 2.00879 8.02344L2 7.7998C2.00003 7.40144 2.04157 7.00423 2.12305 6.61426C2.67294 3.97848 5.01246 2.00183 7.81543 2.00098H7.81738C8.90262 1.99961 9.96525 2.301 10.8848 2.87109L11.0664 2.98828L11.0674 2.98926C11.4061 3.21783 11.7181 3.48151 12 3.77344C12.2819 3.48151 12.5939 3.21783 12.9326 2.98926L12.9336 2.98828C13.8618 2.36429 14.9811 2.00003 16.1826 2C18.9865 2 21.328 3.97781 21.8779 6.61426C21.9594 7.00423 22 7.40144 22 7.7998L21.9912 8.02344Z" fill="currentColor"/>
</svg>