<svg width="24" height="24" viewBox="0 0 24 24" fill="none" xmlns="http://www.w3.org/2000/svg">
<path d="M12 2C17.5228 2 22 6.47715 22 12C22 17.5228 17.5228 22 12 22C6.47715 22 2 17.5228 2 12C2 6.47715 6.47715 2 12 2ZM9.88477 16C10.0388 16.7491 10.2322 17.4237 10.457 18.002C10.7473 18.7482 11.0687 19.2841 11.374 19.6162C11.6785 19.9473 11.8912 20 12 20C12.1088 20 12.3215 19.9473 12.626 19.6162C12.9313 19.2841 13.2527 18.7482 13.543 18.002C13.7678 17.4237 13.9612 16.7491 14.1152 16H9.88477ZM5.07324 16C5.93634 17.4914 7.26537 18.6785 8.86328 19.3604C8.76743 19.1563 8.67749 18.9444 8.59277 18.7266C8.28247 17.9286 8.0305 17.0072 7.84668 16H5.07324ZM16.1533 16C15.9695 17.0072 15.7175 17.9286 15.4072 18.7266C15.3225 18.9445 15.2317 19.1562 15.1357 19.3604C16.734 18.6786 18.0635 17.4917 18.9268 16H16.1533ZM4.25195 10C4.08743 10.6392 4 11.3094 4 12C4 12.6906 4.08743 13.3608 4.25195 14H7.58398C7.52941 13.3523 7.5 12.6832 7.5 12C7.5 11.3168 7.52941 10.6477 7.58398 10H4.25195ZM9.5918 10C9.53273 10.6381 9.5 11.3076 9.5 12C9.5 12.6924 9.53273 13.3619 9.5918 14H14.4082C14.4673 13.3619 14.5 12.6924 14.5 12C14.5 11.3076 14.4673 10.6381 14.4082 10H9.5918ZM16.416 10C16.4706 10.6477 16.5 11.3168 16.5 12C16.5 12.6832 16.4706 13.3523 16.416 14H19.748C19.9126 13.3608 20 12.6906 20 12C20 11.3094 19.9126 10.6392 19.748 10H16.416ZM8.86328 4.63867C7.26521 5.32049 5.93641 6.50849 5.07324 8H7.84668C8.0305 6.99276 8.28247 6.07135 8.59277 5.27344C8.6776 5.05532 8.76729 4.843 8.86328 4.63867ZM12 4C11.8912 4 11.6785 4.05275 11.374 4.38379C11.0687 4.71589 10.7473 5.25181 10.457 5.99805C10.2322 6.57626 10.0388 7.2509 9.88477 8H14.1152C13.9612 7.2509 13.7678 6.57626 13.543 5.99805C13.2527 5.25181 12.9313 4.71589 12.626 4.38379C12.3215 4.05275 12.1088 4 12 4ZM15.1357 4.63867C15.2318 4.84312 15.3223 5.05518 15.4072 5.27344C15.7175 6.07135 15.9695 6.99276 16.1533 8H18.9268C18.0634 6.50823 16.7342 5.32044 15.1357 4.63867Z" fill="currentColor"/>
</svg>
