<svg width="24" height="24" viewBox="0 0 24 24" fill="none" xmlns="http://www.w3.org/2000/svg">
<path d="M11 14C11.5523 14 12 14.4477 12 15C12 15.5523 11.5523 16 11 16H7C6.44772 16 6 15.5523 6 15C6 14.4477 6.44772 14 7 14H11Z" fill="currentColor"/>
<path fill-rule="evenodd" clip-rule="evenodd" d="M19 4C20.6569 4 22 5.34315 22 7V17C22 18.6569 20.6569 20 19 20H5C3.34315 20 2 18.6569 2 17V7C2 5.34315 3.34315 4 5 4H19ZM4 17C4 17.5523 4.44772 18 5 18H19C19.5523 18 20 17.5523 20 17V10H4V17ZM5 6C4.44772 6 4 6.44772 4 7V8H20V7C20 6.44772 19.5523 6 19 6H5Z" fill="currentColor"/>
</svg>
