<svg width="24" height="24" viewBox="0 0 24 24" fill="none" xmlns="http://www.w3.org/2000/svg">
<path d="M10.5996 1.125H13.4004C15.0824 1.125 16.3369 1.12483 17.3311 1.20605C18.3236 1.28718 19.0459 1.44918 19.667 1.76562C20.7724 2.32888 21.6711 3.22756 22.2344 4.33301C22.5508 4.95409 22.7128 5.6764 22.7939 6.66895C22.8752 7.66311 22.875 8.91759 22.875 10.5996V13.4004C22.875 15.0824 22.8752 16.3369 22.7939 17.3311C22.7128 18.3236 22.5508 19.0459 22.2344 19.667C21.6711 20.7724 20.7724 21.6711 19.667 22.2344C19.0459 22.5508 18.3236 22.7128 17.3311 22.7939C16.3369 22.8752 15.0824 22.875 13.4004 22.875H10.5996C8.91759 22.875 7.66311 22.8752 6.66895 22.7939C5.6764 22.7128 4.95409 22.5508 4.33301 22.2344C3.22756 21.6711 2.32888 20.7724 1.76562 19.667C1.44918 19.0459 1.28718 18.3236 1.20605 17.3311C1.12483 16.3369 1.125 15.0824 1.125 13.4004V10.5996L1.12598 9.41602C1.12981 8.30697 1.14513 7.41464 1.20605 6.66895C1.28718 5.6764 1.44918 4.95409 1.76562 4.33301C2.32888 3.22756 3.22756 2.32888 4.33301 1.76562C4.95409 1.44918 5.6764 1.28718 6.66895 1.20605C7.41464 1.14513 8.30697 1.12981 9.41602 1.12598L10.5996 1.125Z" fill="url(#paint0_linear_4037_7579)" stroke="url(#paint1_linear_4037_7579)" stroke-width="0.25"/>
<path fill-rule="evenodd" clip-rule="evenodd" d="M6.70019 6.5002H11.9004V1.2002H12.0996V6.5002H17.2998V1.3H17.5V6.5002H22.7V6.70039H17.5V11.9006H22.8V12.0998H17.5V17.3H22.7V17.5002H17.5V22.7H17.2998V17.5002H12.0996V22.8H11.9004V17.5002H6.70019V22.7H6.5V17.5002H1.3V17.3H6.5V12.0998H1.2V11.9006H6.5V6.70039H1.3V6.5002H6.5V1.3H6.70019V6.5002ZM6.70019 12.0998V17.3H11.9004V12.0998H6.70019ZM12.0996 12.0998V17.3H17.2998V12.0998H12.0996ZM6.70019 6.70039V11.9006H11.9004V6.70039H6.70019ZM12.0996 6.70039V11.9006H17.2998V6.70039H12.0996Z" fill="url(#paint2_linear_4037_7579)"/>
<path d="M18.2408 5.63795C16.5544 3.95154 14.1927 3.60395 13.0295 3.62479C12.9152 3.62683 12.8267 3.72177 12.8267 3.83608C12.8267 3.94804 12.9122 4.04092 13.0235 4.05298C13.6653 4.12251 14.2033 4.27404 15.1996 5.27032C16.3693 6.44004 14.6314 8.04422 13.0272 9.64841L11.5567 11.1189L12.8935 12.4557L14.364 10.9852C16.3024 9.04684 17.6058 7.94396 18.3077 8.64579C18.7087 9.04684 18.2074 9.4813 18.6419 9.91577L19.1098 10.3837C19.2205 10.4944 19.4001 10.4944 19.5108 10.3837L21.115 8.77947C21.2257 8.66873 21.2257 8.48917 21.115 8.37843L20.6471 7.91054C20.3129 7.57634 19.7113 7.91054 19.3771 7.57634C19.0429 7.24213 19.1766 6.57372 18.2408 5.63795Z" fill="#3B3D45"/>
<path d="M18.2408 5.63797C19.1766 6.57375 18.8758 7.87714 17.2716 7.87714C15.6675 7.87715 16.3692 8.57898 15.1327 9.81553L12.693 12.2552L11.5567 11.1189L13.0272 9.64843C14.6314 8.04425 16.3692 6.44006 15.1995 5.27035C14.2033 4.27409 13.6652 4.12257 13.0235 4.05305C12.9122 4.04099 12.8267 3.9481 12.8267 3.83614C12.8267 3.72183 12.9152 3.62689 13.0295 3.62485C14.1927 3.60402 16.5544 3.9516 18.2408 5.63797Z" fill="#6E737E"/>
<path d="M19.4105 7.94398C19.469 8.00247 19.3228 8.16331 19.1734 8.31455L19.1097 8.37845C18.9426 8.54555 18.7755 8.71266 18.7087 8.64581C18.6419 8.57896 18.809 8.41185 18.976 8.24477C19.1431 8.07769 19.3436 7.87723 19.4105 7.94398Z" fill="#6E737E"/>
<path d="M20.4465 9.04686C20.5134 9.1137 20.246 9.38106 20.1792 9.31422L19.845 8.98002C19.7447 8.87981 19.588 8.9904 19.5212 9.05724C19.4543 9.12408 19.3437 9.14712 19.3102 9.1137C19.2769 9.08025 19.3103 8.98 19.3771 8.91318C19.4439 8.84634 19.8449 8.44538 19.9787 8.57897L20.4465 9.04686Z" fill="#6E737E"/>
<path d="M18.2408 5.638C16.5544 3.9516 14.1927 3.60401 13.0295 3.62484C12.9152 3.62689 12.8267 3.72183 12.8267 3.83614C12.8267 3.9481 12.9122 4.04097 13.0235 4.05303C13.6653 4.12256 14.2033 4.27409 15.1996 5.27038C16.3693 6.44009 14.6314 8.04428 13.0272 9.64846L11.5567 11.119L11.7907 11.3529C11.7907 11.3529 14.1787 8.87356 14.7639 8.31042C16.5107 6.56358 16.2206 5.22541 14.3806 4.23959C14.2898 4.19094 14.3244 4.05396 14.4268 4.06495C15.6267 4.19361 16.9904 4.70255 18.2408 5.638Z" fill="#91A1B9"/>
<path d="M21.0816 8.74598C21.1739 8.6537 21.1739 8.50407 21.0816 8.41178L20.6137 7.94389C20.4628 7.79298 20.2506 7.79063 20.0121 7.79063C19.7827 7.79063 19.527 7.79298 19.3437 7.60969C19.2534 7.51936 19.1961 7.40786 19.1462 7.28136C19.1212 7.21812 19.0977 7.15003 19.0728 7.07836C19.0479 7.00636 19.0214 6.93026 18.9904 6.84963C18.867 6.52876 18.6698 6.13368 18.2074 5.6713C16.5336 3.99753 14.1868 3.6513 13.0303 3.67201C12.9432 3.67358 12.874 3.74608 12.874 3.83605C12.874 3.92322 12.9406 3.99635 13.0285 4.00589C13.3523 4.04096 13.6535 4.0972 13.9999 4.27189C14.3453 4.44611 14.7329 4.73679 15.233 5.23684C15.5346 5.53844 15.6508 5.87122 15.6263 6.22548C15.602 6.57704 15.4395 6.94537 15.1932 7.32222C14.701 8.07521 13.8607 8.88169 13.0607 9.68176L11.6236 11.1188L12.8936 12.3888L14.3306 10.9517C15.2993 9.98302 16.1131 9.21923 16.7737 8.78587C17.1038 8.56926 17.4001 8.43213 17.6614 8.39572C17.9258 8.3589 18.1541 8.42533 18.3411 8.6123C18.559 8.83024 18.53 9.06136 18.5093 9.27281C18.4988 9.37992 18.4903 9.48108 18.5092 9.58163C18.5278 9.68036 18.5734 9.78038 18.6753 9.88228L19.1432 10.3502C19.2355 10.4425 19.3851 10.4425 19.4774 10.3502L21.0816 8.74598ZM19.5442 10.417C19.415 10.5462 19.2055 10.5462 19.0763 10.417L18.6085 9.94912C18.4931 9.83379 18.4384 9.71657 18.4163 9.59912C18.3945 9.48349 18.4048 9.36949 18.4152 9.26354C18.4362 9.0489 18.4573 8.86225 18.2742 8.67914C18.1103 8.5152 17.9125 8.4563 17.6745 8.48946C17.4336 8.52302 17.1512 8.65117 16.8255 8.86485C16.1743 9.29206 15.3671 10.0489 14.3975 11.0186L12.8936 12.5225L11.4899 11.1188L12.9938 9.61492C13.7979 8.8108 14.6287 8.01309 15.1141 7.27052C15.3565 6.8996 15.5094 6.54729 15.5321 6.21895C15.5546 5.89332 15.4494 5.58693 15.1661 5.30368C14.6699 4.80746 14.2904 4.52422 13.9573 4.35622C13.6251 4.18868 13.3364 4.13434 13.0184 4.09989C12.8837 4.08528 12.7795 3.97274 12.7795 3.83605C12.7795 3.69741 12.8871 3.58004 13.0286 3.5775C14.1985 3.55654 16.5752 3.90542 18.2742 5.60446C18.7476 6.07785 18.9514 6.48487 19.0787 6.81569C19.1103 6.89799 19.1373 6.97548 19.1622 7.04735C19.1872 7.1195 19.2101 7.18561 19.2342 7.24663C19.2824 7.36869 19.3338 7.46608 19.4105 7.54285C19.5615 7.69376 19.7736 7.69611 20.0121 7.69611C20.2415 7.69611 20.4972 7.69376 20.6805 7.87705L21.1484 8.34494C21.2776 8.47414 21.2776 8.68362 21.1484 8.81283L19.5442 10.417Z" fill="#1C1B1F"/>
<path d="M9.95255 16.1987C11.2225 14.9288 13.0941 12.6562 12.8935 12.4556L11.5567 11.1188C11.3562 10.9183 9.08362 12.7898 7.81364 14.0598L4.47159 17.4019C4.07055 17.8029 4.27107 18.2708 5.00632 19.0061C5.74157 19.7413 6.20946 19.9418 6.67734 19.4739L9.95255 16.1987Z" fill="#212227"/>
<path d="M8.94993 15.1961C10.2199 13.9261 12.3922 11.9543 12.5259 12.088L11.5567 11.1188C11.3562 10.9183 9.08362 12.7898 7.81364 14.0598L4.47159 17.4019C4.07055 17.8029 4.27107 18.2708 5.00632 19.0061C5.47421 19.4739 5.27368 18.8724 5.57447 18.5716L8.94993 15.1961Z" fill="#3B3C44"/>
<path d="M8.04758 14.2938C10.4539 11.8875 11.9244 11.4864 11.9244 11.4864L11.5567 11.1188C11.3562 10.9183 9.08362 12.7898 7.81364 14.0598L4.47159 17.4019C4.07055 17.8029 4.27107 18.2708 5.00632 19.0061C5.00632 19.0061 4.20423 18.1371 4.8058 17.5355L8.04758 14.2938Z" fill="#5E636F"/>
<path d="M6.64392 19.4405L9.91913 16.1653C10.5527 15.5317 11.3369 14.6473 11.9375 13.8966C12.2379 13.5211 12.4916 13.18 12.6574 12.921C12.7405 12.7912 12.8003 12.6837 12.8331 12.6039C12.8496 12.5638 12.8582 12.5332 12.8605 12.5117C12.8623 12.4955 12.86 12.4895 12.8595 12.4884L11.524 11.1528C11.5228 11.1523 11.5168 11.1501 11.5006 11.1518C11.4791 11.1541 11.4486 11.1627 11.4084 11.1792C11.3286 11.212 11.2211 11.2718 11.0913 11.3549C10.8323 11.5207 10.4912 11.7744 10.1157 12.0748C9.36497 12.6754 8.48066 13.4596 7.84706 14.0932L4.50501 17.4352C4.40944 17.5308 4.35224 17.6278 4.32858 17.729C4.30494 17.8302 4.31377 17.9399 4.35736 18.0628C4.44545 18.311 4.67257 18.6054 5.03974 18.9726C5.40715 19.34 5.70086 19.5662 5.95619 19.6459C6.08227 19.6853 6.19803 19.6887 6.309 19.6562C6.42049 19.6235 6.53084 19.5535 6.64392 19.4405ZM6.71076 19.5073C6.58992 19.6281 6.4663 19.7086 6.3355 19.7469C6.20419 19.7854 6.06926 19.7804 5.92799 19.7363C5.6486 19.649 5.34073 19.4072 4.9729 19.0394C4.60482 18.6713 4.36405 18.3642 4.26833 18.0944C4.22002 17.9582 4.20796 17.8298 4.23654 17.7075C4.2651 17.5853 4.33322 17.4733 4.43817 17.3684L7.78022 14.0263C8.41659 13.39 9.30358 12.6034 10.0567 12.0009C10.4332 11.6997 10.7773 11.4437 11.0404 11.2753C11.1717 11.1913 11.2846 11.1278 11.3724 11.0917C11.416 11.0738 11.4561 11.0615 11.4905 11.0578C11.5236 11.0543 11.5624 11.0576 11.5902 11.0853L12.927 12.4222C12.9547 12.4499 12.9581 12.4888 12.9545 12.5218C12.9508 12.5562 12.9385 12.5963 12.9206 12.6399C12.8845 12.7277 12.821 12.8406 12.737 12.9719C12.5686 13.2351 12.3126 13.5791 12.0114 13.9556C11.4089 14.7087 10.6223 15.5957 9.98597 16.2321L6.71076 19.5073Z" fill="#1C1B1F"/>
<defs>
<linearGradient id="paint0_linear_4037_7579" x1="12" y1="1" x2="12" y2="23" gradientUnits="userSpaceOnUse">
<stop stop-color="#0CBFFA"/>
<stop offset="1" stop-color="#196DFA"/>
</linearGradient>
<linearGradient id="paint1_linear_4037_7579" x1="12" y1="1" x2="12" y2="23" gradientUnits="userSpaceOnUse">
<stop stop-color="#7FEDFF"/>
<stop offset="1" stop-color="#7FEDFF" stop-opacity="0"/>
</linearGradient>
<linearGradient id="paint2_linear_4037_7579" x1="12" y1="1" x2="12" y2="23" gradientUnits="userSpaceOnUse">
<stop stop-color="#1FD4FF"/>
<stop offset="1" stop-color="#2D81FF"/>
</linearGradient>
</defs>
</svg>
