<svg width="24" height="24" viewBox="0 0 24 24" fill="none" xmlns="http://www.w3.org/2000/svg">
<path d="M17.7973 11.5806C17.8081 10.7459 18.0298 9.92756 18.4418 9.20161C18.8538 8.47566 19.4428 7.86572 20.1539 7.42854C19.7021 6.78338 19.1062 6.25244 18.4134 5.87789C17.7205 5.50334 16.9499 5.29549 16.1627 5.27086C14.4835 5.0946 12.8555 6.27569 11.9998 6.27569C11.1275 6.27569 9.81004 5.28836 8.39131 5.31755C7.47364 5.3472 6.57929 5.61405 5.79541 6.09211C5.01154 6.57017 4.36486 7.24313 3.91839 8.04542C1.98439 11.3938 3.42698 16.3149 5.27959 19.0215C6.20649 20.3469 7.28977 21.8273 8.70722 21.7748C10.0943 21.7173 10.6123 20.8903 12.2866 20.8903C13.9454 20.8903 14.4314 21.7748 15.8776 21.7414C17.366 21.7173 18.3038 20.4102 19.1981 19.0723C19.8641 18.1279 20.3766 17.0842 20.7166 15.9798C19.8518 15.614 19.1139 15.0019 18.5948 14.2196C18.0757 13.4373 17.7983 12.5195 17.7973 11.5806Z" fill="currentColor"/>
<path d="M15.0657 3.49062C15.8772 2.51641 16.277 1.26423 16.1802 0C14.9404 0.13022 13.7951 0.722779 12.9726 1.65961C12.5705 2.11728 12.2625 2.64971 12.0662 3.22648C11.87 3.80325 11.7893 4.41304 11.8289 5.021C12.4491 5.02739 13.0626 4.89297 13.6232 4.62788C14.1839 4.3628 14.6771 3.97395 15.0657 3.49062Z" fill="currentColor"/>
</svg>
