<svg width="24" height="24" viewBox="0 0 24 24" fill="none" xmlns="http://www.w3.org/2000/svg">
<path d="M20 10H4C3.17157 10 2.5 10.6716 2.5 11.5V21.5C2.5 22.3284 3.17157 23 4 23H20C20.8284 23 21.5 22.3284 21.5 21.5V11.5C21.5 10.6716 20.8284 10 20 10Z" fill="#1976D2"/>
<path d="M12 13.3755C13.717 13.3755 15.125 14.7835 15.125 16.5005C15.1248 18.2173 13.7169 19.6255 12 19.6255C10.5242 19.6255 9.27934 18.5833 8.95804 17.2007H10.5352C10.7945 17.7489 11.3465 18.1255 12 18.1255C12.9062 18.1255 13.6248 17.4066 13.625 16.5005C13.625 15.5942 12.9064 14.8755 12 14.8755C11.3874 14.8755 10.867 15.208 10.5899 15.7007H8.98343C9.34014 14.3678 10.5597 13.3755 12 13.3755Z" fill="#0D47A1"/>
<path fill-rule="evenodd" clip-rule="evenodd" d="M12 11.2495C14.8994 11.2496 17.25 13.6011 17.25 16.5005C17.2498 19.3997 14.8993 21.7504 12 21.7505C9.10075 21.7504 6.7503 19.3997 6.75004 16.5005C6.75009 13.6011 9.10062 11.2496 12 11.2495ZM12 12.2007C9.62529 12.2007 7.70028 14.1257 7.70023 16.5005C7.7005 18.8751 9.62542 20.8002 12 20.8003C14.3746 20.8002 16.2996 18.875 16.2998 16.5005C16.2998 14.1258 14.3748 12.2008 12 12.2007Z" fill="#0D47A1"/>
<path d="M0.912525 0.756284C1.18563 0.545345 1.57844 0.595553 1.78948 0.868588L3.91448 3.61859C4.12518 3.89165 4.07503 4.28454 3.80217 4.49554C3.52918 4.70649 3.13636 4.65601 2.92522 4.38324L0.80022 1.63324C0.58918 1.36013 0.639452 0.967355 0.912525 0.756284Z" fill="#769616"/>
<path d="M22.2104 0.867612C22.4214 0.594662 22.8142 0.544599 23.0873 0.755307C23.3604 0.966378 23.4107 1.35915 23.1996 1.63226L21.0746 4.38226C20.8636 4.65528 20.4708 4.70559 20.1977 4.49457C19.925 4.28344 19.8745 3.8906 20.0854 3.61761L22.2104 0.867612Z" fill="#769616"/>
<path fill-rule="evenodd" clip-rule="evenodd" d="M19.9996 3C20.828 3 21.4996 3.67157 21.4996 4.5V8C21.4996 8.82843 20.828 9.5 19.9996 9.5H3.99957C3.17134 9.49977 2.49957 8.82828 2.49957 8V4.5C2.49957 3.67172 3.17134 3.00023 3.99957 3H19.9996ZM7.18707 4.875C6.25528 4.87524 5.49957 5.63066 5.49957 6.5625C5.49957 7.49434 6.25528 8.24976 7.18707 8.25C8.11905 8.25 8.87457 7.49448 8.87457 6.5625C8.87457 5.63052 8.11905 4.875 7.18707 4.875ZM16.9371 4.875C16.0053 4.87524 15.2496 5.63066 15.2496 6.5625C15.2496 7.49434 16.0053 8.24976 16.9371 8.25C17.869 8.25 18.6246 7.49448 18.6246 6.5625C18.6246 5.63052 17.869 4.875 16.9371 4.875Z" fill="#AEEA00"/>
</svg>
