<svg width="24" height="24" viewBox="0 0 24 24" fill="none" xmlns="http://www.w3.org/2000/svg">
<path d="M8.5 14C8.77614 14 9 14.2239 9 14.5V16.5C9 16.7761 8.77614 17 8.5 17H4.5C4.22386 17 4 16.7761 4 16.5V14.5C4 14.2239 4.22386 14 4.5 14H8.5Z" fill="currentColor"/>
<path fill-rule="evenodd" clip-rule="evenodd" d="M19.9268 4.00391C20.7395 4.01667 21.2336 4.06814 21.6348 4.27246C22.1052 4.51214 22.4879 4.89483 22.7275 5.36523C22.9999 5.89999 23 6.60002 23 8V16L22.9961 16.9268C22.9833 17.7395 22.9319 18.2336 22.7275 18.6348L22.6309 18.8076C22.3907 19.199 22.0462 19.5179 21.6348 19.7275L21.4258 19.8174C21.0604 19.9478 20.6043 19.9855 19.9268 19.9961L19 20H5C3.77477 20 3.08563 20 2.57422 19.8174L2.36523 19.7275C1.89483 19.4879 1.51214 19.1052 1.27246 18.6348C1.00007 18.1 1 17.4 1 16V8C1 6.77477 1.00002 6.08563 1.18262 5.57422L1.27246 5.36523C1.48211 4.95378 1.80096 4.60933 2.19238 4.36914L2.36523 4.27246C2.89999 4.00007 3.60002 4 5 4H19L19.9268 4.00391ZM2 16C2 16.7165 2.00032 17.1938 2.03027 17.5605C2.05924 17.9151 2.11072 18.0777 2.16309 18.1807C2.3069 18.4629 2.53709 18.6931 2.81934 18.8369C2.92228 18.8893 3.0849 18.9408 3.43945 18.9697C3.80616 18.9997 4.28347 19 5 19H19C19.7165 19 20.1938 18.9997 20.5605 18.9697C20.9151 18.9408 21.0777 18.8893 21.1807 18.8369C21.4629 18.6931 21.6931 18.4629 21.8369 18.1807C21.8893 18.0777 21.9408 17.9151 21.9697 17.5605C21.9997 17.1938 22 16.7165 22 16V11H2V16ZM5 5C4.28347 5 3.80616 5.00032 3.43945 5.03027C3.0849 5.05924 2.92228 5.11072 2.81934 5.16309C2.53709 5.3069 2.3069 5.53709 2.16309 5.81934C2.11072 5.92228 2.05924 6.0849 2.03027 6.43945C2.00032 6.80616 2 7.28347 2 8H22C22 7.28347 21.9997 6.80616 21.9697 6.43945C21.9408 6.0849 21.8893 5.92228 21.8369 5.81934C21.6931 5.53709 21.4629 5.3069 21.1807 5.16309C21.0777 5.11072 20.9151 5.05924 20.5605 5.03027C20.1938 5.00032 19.7165 5 19 5H5Z" fill="currentColor"/>
</svg>
