<svg width="280" height="100" viewBox="0 0 280 100" fill="none" xmlns="http://www.w3.org/2000/svg">
<path d="M199.146 52.9785C202.679 52.9785 205.814 54.2088 207.6 56.5098L202.996 60.5566C201.805 59.0888 200.258 58.7315 198.393 58.7314C195.694 58.7314 194.146 60.3979 194.146 61.8262C194.146 63.3332 195.416 63.6505 196.566 63.9678L198.71 64.5234C203.671 65.793 205.298 68.0941 205.298 72.1406C205.298 78.9644 199.622 81.7021 193.59 81.7021C188.867 81.7021 186.049 80.6311 183.589 77.8145L188.352 73.6484C189.741 75.2353 191.725 75.8701 194.186 75.8701C196.765 75.8701 198.67 74.442 198.67 72.8154C198.67 71.3079 197.837 70.7922 196.289 70.3955L194.146 69.8398C188.431 68.372 187.558 65.0794 187.558 62.8975C187.558 56.7085 192.36 52.9785 199.146 52.9785Z" fill="black"/>
<path d="M121.438 65.6738L130.249 53.2168H136.718L131.043 81.4639H124.455L127.232 67.5391L122.192 74.5215H117.985L115.406 67.5391L112.588 81.4639H106L111.676 53.2168H117.827L121.438 65.6738Z" fill="black"/>
<path fill-rule="evenodd" clip-rule="evenodd" d="M158.427 81.4639H151.72L151.323 77.0205H142.949L140.767 81.4639H133.741L149.141 53.2168H154.26L158.427 81.4639ZM145.647 71.665H150.808L149.934 63.333L145.647 71.665Z" fill="black"/>
<path fill-rule="evenodd" clip-rule="evenodd" d="M177.08 53.2168C181.644 53.2168 184.898 56.1528 184.898 61.0723C184.898 65.9519 181.248 70.99 174.184 70.9902H169.817L167.714 81.4639H161.126L166.801 53.2168H177.08ZM171.008 65.1582H174.461C177.438 65.1582 178.271 62.6985 178.271 61.667C178.27 60.1993 177.636 59.049 175.93 59.0488H172.238L171.008 65.1582Z" fill="black"/>
<path d="M120.817 17.8721C126.851 17.8721 129.669 21.9189 129.669 26.8779H123.08C123.04 25.2514 122.484 23.665 120.341 23.665C118.912 23.6651 118.198 24.1805 117.483 24.8945C116.57 25.807 115.935 27.4736 114.982 32.2344C114.665 33.8213 114.229 36.3203 114.229 37.7881C114.229 39.7321 115.34 40.8037 117.087 40.8037C119.19 40.8035 120.421 39.2163 121.056 37.5898H127.843C125.779 43.7788 121.611 46.5957 116.57 46.5957C110.617 46.5956 107.6 42.5887 107.6 38.3438C107.6 37.0742 107.799 35.0114 108.354 32.2344C109.347 27.2752 110.061 23.8628 112.602 21.165C114.943 18.6659 118.079 17.8721 120.817 17.8721Z" fill="black"/>
<path d="M214.889 17.8721C220.922 17.8722 223.74 21.9189 223.74 26.8779H217.151C217.112 25.2514 216.555 23.665 214.412 23.665C212.983 23.6651 212.269 24.1805 211.555 24.8945C210.642 25.807 210.006 27.4736 209.054 32.2344C208.736 33.8213 208.3 36.3203 208.3 37.7881C208.3 39.732 209.411 40.8036 211.157 40.8037C213.261 40.8037 214.492 39.2164 215.127 37.5898H221.914C219.85 43.7788 215.682 46.5956 210.642 46.5957C204.688 46.5957 201.671 42.5888 201.671 38.3438C201.671 37.0743 201.869 35.0113 202.425 32.2344C203.417 27.2753 204.132 23.8628 206.672 21.165C209.014 18.6656 212.15 17.8721 214.889 17.8721Z" fill="black"/>
<path fill-rule="evenodd" clip-rule="evenodd" d="M145.308 18.1104C151.222 18.1104 153.405 21.9191 153.405 26.2832C153.405 29.4173 151.499 33.0669 147.292 34.8125L151.063 46.3574H143.839L140.862 35.6455H138.361L136.179 46.3574H129.59L135.266 18.1104H145.308ZM139.434 30.1709H142.887C146.022 30.1708 146.776 27.7901 146.776 26.6396C146.776 24.8943 145.824 23.9824 144.196 23.9824H140.703L139.434 30.1709Z" fill="black"/>
<path d="M166.622 18.1104L160.946 46.3574H154.357L160.033 18.1104H166.622Z" fill="black"/>
<path d="M189.049 23.9424H182.579L178.094 46.3574H171.505L175.99 23.9424H169.242L170.433 18.1104H190.239L189.049 23.9424Z" fill="black"/>
<path d="M195.082 46.3574H188.493L194.169 18.1104H200.758L195.082 46.3574Z" fill="black"/>
<path fill-rule="evenodd" clip-rule="evenodd" d="M245.65 46.3574H238.942L238.545 41.9141H230.17L227.987 46.3574H220.962L236.362 18.1104H241.482L245.65 46.3574ZM232.869 36.5586H238.029L237.156 28.2266L232.869 36.5586Z" fill="black"/>
<path d="M260.614 18.1104L256.129 40.5654H267.6L266.449 46.3574H248.35L254.025 18.1104H260.614Z" fill="black"/>
<path fill-rule="evenodd" clip-rule="evenodd" d="M63.2869 33.4088L69.6413 38.9541L68.3222 40.7395L73.9797 46.3818L68.8679 52.7546L70.3827 64.841L64.186 70.9494L66.9831 86.4478C75.0991 82.6671 81.7388 76.2607 85.8035 68.3243L78.2366 64.4066C79.8235 61.3641 80.9305 58.0328 81.4577 54.5125L89.7835 55.7632C90.044 53.9198 90.1787 52.0362 90.1787 50.1212C90.1787 39.0795 85.7009 29.0809 78.4576 21.8331L72.6618 27.5263C70.2191 25.053 67.3723 22.9776 64.2282 21.4067L67.8384 14.2054C62.4638 11.5451 56.407 10.0494 50 10.0494C43.593 10.0494 37.5363 11.5451 32.1617 14.2054L35.7719 21.4067C32.6278 22.9776 29.781 25.053 27.3382 27.5263L21.5425 21.8331C14.2992 29.0809 9.82141 39.0795 9.82141 50.1212C9.82141 52.0362 9.9561 53.9198 10.2165 55.7632L18.5424 54.5125C19.0695 58.0328 20.1766 61.3641 21.7634 64.4066L14.1966 68.3243C18.2898 76.3164 24.9942 82.7569 33.188 86.5269L35.1332 69.3896L24.4716 48.8244L33.2086 28.7819L38.1502 31.2462L46.094 21.8831L53.2522 25.0561L54.4308 23.6847L64.5788 31.5566L63.2869 33.4088Z" fill="#FFD633"/>
<path d="M50.8107 42.912L48.4191 46.3417H40.218V51.1288H48.9113L62.4982 60.6952L64.6838 57.9706L65.3264 63.0946L59.0139 69.3163L62.4289 88.2392C60.5564 88.846 58.6236 89.3195 56.6418 89.6483L55.215 81.0868C53.5183 81.3659 51.7762 81.5106 50.0002 81.5106C48.2242 81.5106 46.482 81.3659 44.7853 81.0868L43.3586 89.6483C41.4628 89.3338 39.6118 88.8867 37.8156 88.3173L40.0666 68.4833L29.7834 48.6464L35.591 35.3222L50.8107 42.912Z" fill="white"/>
<path d="M50.0002 84.4599C51.3255 84.46 52.3995 85.5316 52.3996 86.8534C52.3996 88.1753 51.3256 89.2469 50.0002 89.247C48.6747 89.247 47.5998 88.1754 47.5998 86.8534C47.5999 85.5316 48.6748 84.4599 50.0002 84.4599Z" fill="white"/>
<path d="M13.9123 58.9647C15.1728 58.5564 16.5271 59.2447 16.9367 60.5019C17.3461 61.7589 16.656 63.1088 15.3957 63.5175C14.1352 63.926 12.781 63.2384 12.3713 61.9813C11.9617 60.7241 12.6517 59.3732 13.9123 58.9647Z" fill="white"/>
<path d="M83.0637 60.5019C83.4733 59.2446 84.8275 58.5562 86.0881 58.9647C87.3486 59.3733 88.0387 60.7241 87.6291 61.9813C87.2194 63.2385 85.8652 63.926 84.6047 63.5175C83.3441 63.109 82.6541 61.7591 83.0637 60.5019Z" fill="white"/>
<path d="M67.548 46.7372L61.5744 54.1845L59.4787 52.7089L65.4426 44.6376L67.548 46.7372Z" fill="white"/>
<path d="M63.1584 39.6581L55.5568 49.9481L53.0041 48.1513L60.5285 37.3632L63.1584 39.6581Z" fill="white"/>
<path d="M58.0392 32.5487L53.5803 38.9413L49.423 36.8681L55.0969 30.2655L58.0392 32.5487Z" fill="white"/>
<path d="M49.9914 28.8495L44.9972 34.661L42.5685 33.4501L47.4338 27.7157L49.9914 28.8495Z" fill="white"/>
<path d="M26.7443 17.8632C27.8166 17.0864 29.3178 17.3241 30.0969 18.3935C30.8755 19.4629 30.6377 20.9593 29.5656 21.7362C28.4933 22.5133 26.9922 22.2764 26.2131 21.2069C25.434 20.1374 25.672 18.6402 26.7443 17.8632Z" fill="white"/>
<path d="M69.9035 18.3935C70.6826 17.324 72.1837 17.0862 73.256 17.8632C74.3283 18.6402 74.5662 20.1375 73.7873 21.2069C73.0082 22.2764 71.5071 22.5132 70.4347 21.7362C69.3625 20.9593 69.1247 19.4629 69.9035 18.3935Z" fill="white"/>
<path fill-rule="evenodd" clip-rule="evenodd" d="M48.4187 46.3419L50.8108 42.9124L35.5914 35.3225L29.783 48.6466L40.0668 68.4828L37.8154 88.3172C39.6116 88.8866 41.4626 89.3335 43.3584 89.6481L44.785 81.0864C46.4818 81.3656 48.2239 81.5107 50 81.5107C51.7761 81.5107 53.5182 81.3656 55.215 81.0864L56.6416 89.6481C58.6236 89.3192 60.5565 88.8457 62.4292 88.2388L59.0141 69.3166L65.3264 63.0943L64.6842 57.9702L62.4986 60.6949L48.911 51.1291H40.2182V46.3419H48.4187ZM53.0041 48.1509L55.5566 49.9479L63.1588 39.6581L60.5287 37.363L53.0041 48.1509ZM63.2868 33.4088L69.6412 38.9541L68.3222 40.7395L73.9796 46.3819L68.8679 52.7546L70.3827 64.841L64.1859 70.9494L66.9831 86.4478C75.0991 82.6671 81.7387 76.2607 85.8034 68.3243L78.2366 64.4066C79.8235 61.3641 80.9305 58.0328 81.4576 54.5126L89.7835 55.7632C90.0439 53.9198 90.1786 52.0362 90.1786 50.1212C90.1786 39.0795 85.7008 29.0809 78.4575 21.8331L72.6618 27.5263C70.219 25.053 67.3722 22.9776 64.2281 21.4067L67.8384 14.2054C62.4637 11.5451 56.407 10.0494 50 10.0494C43.593 10.0494 37.5363 11.5451 32.1616 14.2054L35.7719 21.4067C32.6278 22.9776 29.781 25.053 27.3382 27.5263L21.5425 21.8331C14.2992 29.0809 9.82137 39.0795 9.82137 50.1212C9.82137 52.0362 9.95606 53.9198 10.2165 55.7632L18.5424 54.5126C19.0695 58.0328 20.1765 61.3641 21.7634 64.4066L14.1966 68.3243C18.2898 76.3164 24.9942 82.7569 33.188 86.5269L35.1332 69.3896L24.4715 48.8244L33.2086 28.7819L38.1502 31.2462L46.0939 21.8831L53.2521 25.0561L54.4307 23.6847L64.5787 31.5566L63.2868 33.4088ZM49.9918 28.8497L47.4334 27.7156L42.5685 33.4497L44.9974 34.6609L49.9918 28.8497ZM49.4227 36.8678L53.5806 38.9414L58.0395 32.5488L55.0966 30.266L49.4227 36.8678ZM59.4789 52.7092L61.5741 54.1842L67.5476 46.7371L65.4423 44.6374L59.4789 52.7092ZM7.03442 35.7498C7.34017 34.8183 7.67553 33.9002 8.03939 32.9966C7.6431 32.2279 6.84398 31.4804 5.78815 30.9338C6.19652 29.9825 6.63485 29.0471 7.10197 28.1286C8.20156 28.5841 9.29033 28.7136 10.1356 28.521C10.5978 27.6609 11.0872 26.8176 11.6026 25.9921C11.3483 25.1658 10.6924 24.29 9.74786 23.5675C10.3154 22.7027 10.9102 21.8572 11.531 21.0323C12.5363 21.6709 13.5872 21.9855 14.4531 21.9396C15.0549 21.1766 15.6809 20.4334 16.3299 19.7112C16.2254 18.8529 15.7328 17.8753 14.9282 16.9987C15.6364 16.2455 16.3688 15.515 17.124 14.8087C18.0029 15.6112 18.9832 16.1025 19.8437 16.2067C20.5678 15.5594 21.313 14.9351 22.0781 14.3349C22.1241 13.4713 21.8086 12.4232 21.1684 11.4206C21.9954 10.8014 22.8432 10.2082 23.7104 9.64217C24.4347 10.5842 25.3129 11.2384 26.1414 11.492C26.9691 10.9779 27.8147 10.4899 28.677 10.0289C28.8701 9.18585 28.7403 8.09999 28.2836 7.00331C29.2045 6.53744 30.1425 6.10027 31.0963 5.69299C31.6443 6.74602 32.3938 7.54301 33.1645 7.93824C34.0706 7.57536 34.9911 7.24089 35.9251 6.93595C36.2607 6.139 36.3211 5.04797 36.0622 3.88999C37.0488 3.59235 38.0489 3.32549 39.0613 3.09054C39.4182 4.22342 40.0185 5.13854 40.7097 5.66064C41.6609 5.46245 42.623 5.29409 43.5951 5.15657C44.0664 4.43132 44.3176 3.36735 44.2655 2.18139C45.2872 2.06026 46.3188 1.97109 47.3591 1.91492C47.5151 3.09358 47.9494 4.09879 48.5417 4.73049C49.0259 4.71518 49.512 4.70747 50 4.70747C50.488 4.70747 50.9741 4.71518 51.4583 4.73049C52.0506 4.09879 52.4849 3.09358 52.6409 1.91492C53.6812 1.97109 54.7128 2.06026 55.7345 2.18139C55.6824 3.36735 55.9336 4.43132 56.4049 5.15657C57.377 5.29409 58.3391 5.46245 59.2903 5.66064C59.9815 5.13854 60.5818 4.22342 60.9387 3.09054C61.9511 3.32549 62.9512 3.59235 63.9378 3.88999C63.6789 5.04797 63.7393 6.139 64.0749 6.93595C65.0089 7.24089 65.9294 7.57536 66.8355 7.93824C67.6062 7.54301 68.3557 6.74602 68.9037 5.69299C69.8575 6.10027 70.7955 6.53744 71.7164 7.00331C71.2597 8.09999 71.1299 9.18585 71.323 10.0289C72.1853 10.4899 73.0309 10.9779 73.8587 11.492C74.6871 11.2384 75.5653 10.5842 76.2896 9.64217C77.1568 10.2082 78.0046 10.8014 78.8316 11.4206C78.1914 12.4232 77.8759 13.4713 77.9219 14.3349C78.687 14.9351 79.4322 15.5594 80.1563 16.2067C81.0168 16.1025 81.9971 15.6112 82.876 14.8087C83.6312 15.515 84.3636 16.2455 85.0718 16.9987C84.2672 17.8753 83.7746 18.8529 83.6701 19.7112C84.3191 20.4334 84.9451 21.1766 85.5469 21.9396C86.4128 21.9855 87.4637 21.6709 88.469 21.0323C89.0898 21.8572 89.6846 22.7027 90.2521 23.5675C89.3076 24.29 88.6517 25.1658 88.3974 25.9921C88.9128 26.8176 89.4022 27.6609 89.8644 28.521C90.7097 28.7136 91.7984 28.5841 92.898 28.1286C93.3651 29.0471 93.8035 29.9825 94.2119 30.9338C93.156 31.4804 92.3569 32.2279 91.9606 32.9966C92.3245 33.9002 92.6598 34.8183 92.9656 35.7498C93.7647 36.0845 94.8586 36.1447 96.0197 35.8865C96.3181 36.8705 96.5857 37.868 96.8212 38.8776C95.6853 39.2336 94.7678 39.8323 94.2443 40.5217C94.443 41.4703 94.6118 42.4299 94.7497 43.3994C95.4769 43.8694 96.5437 44.12 97.7328 44.068C97.8543 45.087 97.9437 46.1158 98 47.1534C96.8182 47.309 95.8103 47.7421 95.1769 48.3328C95.1923 48.8157 95.2 49.3006 95.2 49.7873C95.2 50.2739 95.1923 50.7588 95.1769 51.2417C95.8103 51.8324 96.8182 52.2655 98 52.4211C97.9437 53.4587 97.8543 54.4875 97.7328 55.5065C96.5437 55.4546 95.4769 55.7051 94.7497 56.1751C94.6118 57.1446 94.443 58.1042 94.2443 59.0528C94.7678 59.7422 95.6853 60.3409 96.8212 60.6969C96.5857 61.7066 96.3181 62.704 96.0197 63.688C94.8586 63.4298 93.7647 63.49 92.9656 63.8248C92.6598 64.7562 92.3245 65.6743 91.9606 66.5779C92.3569 67.3467 93.156 68.0941 94.2119 68.6407C93.8035 69.592 93.3651 70.5275 92.898 71.4459C91.7984 70.9904 90.7097 70.861 89.8644 71.0535C89.4022 71.9136 88.9128 72.7569 88.3974 73.5825C88.6517 74.4087 89.3076 75.2845 90.2521 76.007C89.6846 76.8719 89.0898 77.7173 88.469 78.5422C87.4637 77.9037 86.4128 77.589 85.5469 77.6349C84.9451 78.3979 84.3191 79.1411 83.6701 79.8633C83.7746 80.7216 84.2672 81.6992 85.0718 82.5758C84.3636 83.3291 83.6312 84.0595 82.876 84.7658C81.9971 83.9634 81.0168 83.472 80.1563 83.3678C79.4322 84.0151 78.687 84.6394 77.9219 85.2396C77.8759 86.1032 78.1914 87.1514 78.8316 88.1539C78.0046 88.7731 77.1568 89.3663 76.2896 89.9324C75.5653 88.9903 74.6871 88.3362 73.8587 88.0825C73.0309 88.5966 72.1853 89.0846 71.323 89.5456C71.1299 90.3887 71.2597 91.4745 71.7164 92.5712C70.7955 93.0371 69.8575 93.4742 68.9037 93.8815C68.3557 92.8285 67.6062 92.0315 66.8355 91.6363C65.9294 91.9992 65.0089 92.3336 64.0749 92.6386C63.7393 93.4355 63.6789 94.5265 63.9378 95.6845C62.9512 95.9822 61.9511 96.249 60.9387 96.484C60.5818 95.3511 59.9815 94.436 59.2903 93.9139C58.3391 94.1121 57.377 94.2804 56.4049 94.4179C55.9336 95.1432 55.6824 96.2072 55.7345 97.3931C54.7128 97.5142 53.6812 97.6034 52.6409 97.6596C52.4849 96.4809 52.0506 95.4757 51.4583 94.844C50.9741 94.8593 50.488 94.867 50 94.867C49.512 94.867 49.0259 94.8593 48.5417 94.844C47.9494 95.4757 47.5151 96.4809 47.3591 97.6596C46.3188 97.6034 45.2872 97.5142 44.2655 97.3931C44.3176 96.2072 44.0664 95.1432 43.5951 94.4179C42.623 94.2804 41.6609 94.1121 40.7097 93.9139C40.0185 94.436 39.4182 95.3511 39.0613 96.484C38.0489 96.249 37.0488 95.9822 36.0622 95.6845C36.3211 94.5265 36.2607 93.4355 35.9251 92.6386C34.9911 92.3336 34.0706 91.9992 33.1645 91.6363C32.3938 92.0315 31.6443 92.8285 31.0963 93.8815C30.1425 93.4742 29.2045 93.0371 28.2836 92.5712C28.7403 91.4745 28.8701 90.3887 28.677 89.5456C27.8147 89.0846 26.9691 88.5966 26.1414 88.0825C25.3129 88.3362 24.4347 88.9903 23.7104 89.9324C22.8432 89.3663 21.9954 88.7731 21.1684 88.1539C21.8086 87.1514 22.1241 86.1032 22.0781 85.2396C21.313 84.6394 20.5678 84.0151 19.8437 83.3678C18.9832 83.472 18.0029 83.9634 17.124 84.7658C16.3688 84.0595 15.6364 83.3291 14.9282 82.5758C15.7328 81.6992 16.2254 80.7216 16.3299 79.8633C15.6809 79.1411 15.0549 78.3979 14.4531 77.6349C13.5872 77.589 12.5363 77.9037 11.531 78.5422C10.9102 77.7173 10.3154 76.8719 9.74786 76.007C10.6924 75.2845 11.3483 74.4087 11.6026 73.5825C11.0872 72.7569 10.5978 71.9136 10.1356 71.0535C9.29033 70.861 8.20156 70.9904 7.10197 71.4459C6.63485 70.5275 6.19652 69.592 5.78815 68.6407C6.84398 68.0941 7.6431 67.3467 8.03939 66.5779C7.67553 65.6743 7.34017 64.7562 7.03442 63.8248C6.23534 63.49 5.14141 63.4298 3.98034 63.688C3.68191 62.704 3.41434 61.7066 3.17876 60.6969C4.31466 60.3409 5.23221 59.7422 5.75571 59.0528C5.557 58.1042 5.38818 57.1446 5.2503 56.1751C4.52311 55.7051 3.4563 55.4546 2.26719 55.5065C2.14573 54.4875 2.05633 53.4587 2 52.4211C3.18181 52.2655 4.1897 51.8324 4.82308 51.2417C4.80773 50.7588 4.8 50.2739 4.8 49.7873C4.8 49.3006 4.80773 48.8157 4.82308 48.3328C4.1897 47.7421 3.18181 47.309 2 47.1534C2.05633 46.1158 2.14573 45.087 2.26719 44.068C3.4563 44.12 4.52311 43.8694 5.2503 43.3994C5.38818 42.4299 5.557 41.4703 5.75571 40.5217C5.23221 39.8323 4.31466 39.2336 3.17876 38.8776C3.41434 37.868 3.68191 36.8705 3.98034 35.8865C5.14141 36.1447 6.23534 36.0845 7.03442 35.7498ZM50 89.2473C51.3255 89.2473 52.4 88.1756 52.4 86.8536C52.4 85.5317 51.3255 84.46 50 84.46C48.6745 84.46 47.6 85.5317 47.6 86.8536C47.6 88.1756 48.6745 89.2473 50 89.2473ZM12.3712 61.9811C12.7808 63.2383 14.1348 63.9264 15.3954 63.5179C16.656 63.1094 17.3459 61.759 16.9363 60.5017C16.5267 59.2445 15.1727 58.5564 13.9121 58.9649C12.6515 59.3734 11.9616 60.7238 12.3712 61.9811ZM26.7441 17.8634C25.6718 18.6405 25.4341 20.1374 26.2132 21.2069C26.9923 22.2763 28.4932 22.5134 29.5655 21.7364C30.6378 20.9594 30.8756 19.4625 30.0965 18.393C29.3174 17.3235 27.8165 17.0864 26.7441 17.8634ZM87.6288 61.9811C88.0384 60.7238 87.3485 59.3734 86.0879 58.9649C84.8273 58.5564 83.4733 59.2445 83.0637 60.5017C82.6541 61.759 83.344 63.1094 84.6046 63.5179C85.8652 63.9264 87.2192 63.2383 87.6288 61.9811ZM73.2559 17.8634C72.1835 17.0864 70.6826 17.3235 69.9035 18.393C69.1244 19.4625 69.3622 20.9594 70.4345 21.7364C71.5068 22.5134 73.0077 22.2763 73.7868 21.2069C74.5659 20.1374 74.3282 18.6405 73.2559 17.8634Z" fill="black"/>
</svg>
